<?xml version="1.0" standalone="no"?>
<!DOCTYPE svg PUBLIC "-//W3C//DTD SVG 1.1//EN" "http://www.w3.org/Graphics/SVG/1.1/DTD/svg11.dtd" >
<svg xmlns="http://www.w3.org/2000/svg">
<metadata></metadata>
<defs>
<font id="din_next_lt_arabiclight" horiz-adv-x="1089" >
<font-face units-per-em="2048" ascent="1536" descent="-512" />
<missing-glyph horiz-adv-x="503" />
<glyph horiz-adv-x="1024" />
<glyph horiz-adv-x="1024" />
<glyph unicode="&#xd;" horiz-adv-x="0" />
<glyph unicode=" "  horiz-adv-x="503" />
<glyph unicode="&#x09;" horiz-adv-x="503" />
<glyph unicode="&#xa0;" horiz-adv-x="503" />
<glyph unicode="!" horiz-adv-x="544" d="M201 20v138q0 20 20 20h103q20 0 20 -20v-138q0 -20 -20 -20h-103q-20 0 -20 20zM213 1372q0 20 20 21h80q20 0 21 -21l-17 -989q0 -20 -20 -21h-47q-20 0 -21 21z" />
<glyph unicode="&#x22;" horiz-adv-x="643" d="M152 1085v287q0 20 20 21h53q20 0 21 -21v-287q0 -20 -21 -20h-53q-20 0 -20 20zM397 1085v287q0 20 21 21h53q20 0 21 -21v-287q0 -20 -21 -20h-53q-20 0 -21 20z" />
<glyph unicode="#" horiz-adv-x="1060" d="M55 469v49q0 20 21 21h176l47 346h-172q-20 0 -21 20v51q0 20 21 21h184l56 395q4 20 22 21h55q23 0 19 -21l-55 -395h307l55 395q4 20 23 21h55q23 0 18 -21l-55 -395h174q20 0 21 -21v-51q0 -20 -21 -20h-186l-47 -346h184q20 0 20 -21v-49q0 -20 -20 -20h-197 l-57 -429q-4 -20 -23 -20h-55q-23 0 -18 20l57 429h-307l-57 -429q-4 -20 -23 -20h-55q-23 0 -19 20l58 429h-164q-20 0 -21 20zM348 539h307l47 346h-307z" />
<glyph unicode="$" d="M126 115.5q-1 9.5 5 15.5l43 57q10 12 29 2q59 -39 137 -69.5t176 -34.5v567q-184 29 -271 127.5t-87 243.5q0 84 26.5 152.5t73.5 119t112.5 80t145.5 35.5v107q0 20 21 20h38q20 0 21 -20v-107q86 -4 162 -29.5t135 -62.5q8 -4 10 -12.5t-4 -16.5l-35 -55 q-12 -16 -28 -6q-63 35 -120 53t-120 23v-549q190 -29 280.5 -124t90.5 -249q0 -84 -24.5 -153.5t-73 -122t-117 -84t-156.5 -39.5v-109q0 -20 -21 -20h-38q-20 0 -21 20v105q-115 4 -214 38.5t-169 83.5q-6 4 -7 13.5zM266 1034q0 -104 54.5 -171.5t195.5 -96.5v539 q-115 -10 -182.5 -83t-67.5 -188zM596 88q123 14 192.5 88t69.5 201q0 104 -58.5 172.5t-203.5 91.5v-553z" />
<glyph unicode="%" horiz-adv-x="1576" d="M180 1042q0 57 1 93t4 59t5.5 37t6.5 26q23 72 80 112t143 40q84 0 141 -40t80 -112q2 -12 5 -26t6 -37t4 -58.5t1 -93.5q0 -57 -1 -93t-4 -59.5t-6 -36.5t-5 -26q-23 -72 -80 -111.5t-141 -39.5q-86 0 -143.5 40t-79.5 111q-4 12 -6.5 25.5t-5.5 37t-4 59.5t-1 93z M272 1042q0 -55 1 -87.5t2 -53t4.5 -32t7.5 -21.5q27 -88 133 -88q49 0 83 21.5t48 66.5q4 10 7 21.5t4 32t2 53t1 87.5t-1 88t-2 53.5t-4 32t-7 21.5q-14 45 -48 66.5t-83 21.5q-106 0 -133 -88q-4 -10 -7.5 -21.5t-4.5 -32t-2 -53t-1 -88.5zM336 0l807 1393q12 20 28 20 h56q23 0 12 -20l-807 -1393q-12 -20 -29 -20h-55q-23 0 -12 20zM922 350q0 57 1 93t3 58.5t5 37t7 26.5q23 72 80 112t141 40t141.5 -40t79.5 -112q4 -12 7.5 -26.5t5.5 -37t3 -58t1 -93.5q0 -57 -1 -94t-3 -59.5t-5.5 -36t-7.5 -25.5q-23 -72 -80 -111.5t-141 -39.5 t-141 39.5t-80 111.5q-4 12 -7 25.5t-5 36t-3 59.5t-1 94zM1012 350q0 -55 1 -89t3 -53.5t4 -30.5t6 -21q31 -88 133 -88t133 88q2 10 5 21t5.5 30.5t3.5 53.5t1 89t-1 88t-3.5 53.5t-5.5 30.5t-5 21q-31 88 -133 88t-133 -88q-4 -10 -6 -20.5t-4 -31t-3 -53t-1 -88.5z" />
<glyph unicode="&#x26;" horiz-adv-x="1265" d="M156 332q0 121 73.5 226.5t214.5 219.5q-53 68 -89 118t-58.5 91t-32.5 75t-10 71q0 61 22.5 112t62.5 89t94 58.5t118 20.5q66 0 120 -21.5t92 -58.5t59.5 -88t21.5 -110q0 -45 -11.5 -86t-41 -85t-78.5 -92.5t-123 -109.5l311 -404l146 183q12 16 28 4l43 -37 q18 -12 4 -29l-159 -203l96 -124q23 -29 40 -37.5t40 -8.5h28q20 0 21 -20v-66q0 -20 -21 -20h-43q-53 0 -83.5 17.5t-65.5 64.5l-82 108q-94 -109 -182 -159.5t-199 -50.5q-84 0 -149.5 25.5t-111.5 71.5t-70.5 111.5t-24.5 143.5zM262 336q0 -113 66.5 -183.5t185.5 -70.5 q88 0 161 46t156 144l-325 424q-117 -96 -180.5 -179t-63.5 -181zM362 1135q0 -27 7.5 -50.5t26 -55.5t50 -76t80.5 -107q70 55 112 96t64.5 74t29.5 60.5t7 58.5q0 78 -53 127t-135 49q-84 0 -136.5 -49.5t-52.5 -126.5z" />
<glyph unicode="'" horiz-adv-x="397" d="M152 1085v287q0 20 20 21h53q20 0 21 -21v-287q0 -20 -21 -20h-53q-20 0 -20 20z" />
<glyph unicode="(" horiz-adv-x="565" d="M154 672q0 211 57 424t168 399q14 20 31 21h41q10 0 14 -5.5t0 -15.5q-96 -186 -149.5 -399t-53.5 -424t54.5 -425t148.5 -399q4 -10 0 -15t-14 -5h-41q-17 0 -31 20q-111 186 -168 399.5t-57 424.5z" />
<glyph unicode=")" horiz-adv-x="565" d="M100 -152q96 184 149.5 398.5t53.5 425.5t-53 424t-150 399q-4 10 0 15.5t15 5.5h43q14 0 28 -21q111 -186 168.5 -399t57.5 -424t-57.5 -424t-168.5 -400q-14 -20 -28 -20h-43q-10 0 -14.5 5t-0.5 15z" />
<glyph unicode="*" horiz-adv-x="714" d="M102 981q-12 18 9 29l170 98l-170 98q-20 10 -9 29l17 31q10 18 28 8l172 -100v198q0 20 21 21h35q20 0 20 -21v-198l172 100q18 10 29 -8l16 -31q12 -18 -8 -29l-172 -98l172 -98q20 -10 8 -29l-16 -31q-10 -18 -29 -8l-172 100v-198q0 -20 -20 -21h-35q-20 0 -21 21 v196l-172 -98q-18 -10 -28 8z" />
<glyph unicode="+" d="M135 535v61q0 20 21 20h323q12 0 13 13v327q0 20 20 21h66q20 0 20 -21v-327q0 -12 12 -13h324q20 0 20 -20v-61q0 -20 -20 -21h-324q-12 0 -12 -12v-328q0 -20 -20 -20h-66q-20 0 -20 20v328q0 12 -13 12h-323q-20 0 -21 21z" />
<glyph unicode="," horiz-adv-x="436" d="M154 158q0 20 20 20h88q20 0 21 -20v-154q0 -16 -2 -24.5t-9 -20.5l-79 -158q-8 -16 -25 -16q-14 0 -14 18v355z" />
<glyph unicode="-" horiz-adv-x="765" d="M100 514v64q0 20 21 20h524q20 0 21 -20v-64q0 -20 -21 -20h-524q-20 0 -21 20z" />
<glyph unicode="&#xad;" horiz-adv-x="765" d="M100 514v64q0 20 21 20h524q20 0 21 -20v-64q0 -20 -21 -20h-524q-20 0 -21 20z" />
<glyph unicode="." horiz-adv-x="448" d="M154 20v138q0 20 20 20h100q20 0 21 -20v-138q0 -20 -21 -20h-100q-20 0 -20 20z" />
<glyph unicode="/" horiz-adv-x="833" d="M139 0l453 1393q6 20 26 20h62q20 0 14 -20l-452 -1393q-6 -20 -27 -20h-61q-20 0 -15 20z" />
<glyph unicode="0" d="M156 696q0 125 2 207t7 133t10 80t11 47q41 123 133.5 186.5t225.5 63.5t225 -63.5t133 -186.5q6 -18 11.5 -47t10.5 -80t7 -133t2 -207t-2 -206.5t-7 -133t-10.5 -80t-11.5 -47.5q-41 -123 -133 -186t-225 -63t-225.5 63t-133.5 186q-6 18 -11 47t-10 80.5t-7 133 t-2 206.5zM266 696q0 -121 2 -198.5t6.5 -125.5t9.5 -75t11 -43q29 -88 93.5 -129t156.5 -41t156.5 41t93.5 129q6 16 11 43t9 75t6 125.5t2 198.5t-2 199t-6 126t-9 74.5t-11 43.5q-29 88 -93.5 129t-156.5 41t-156.5 -41t-93.5 -129q-6 -16 -11 -43t-9.5 -75t-6.5 -126 t-2 -199z" />
<glyph unicode="1" d="M248 1077v86q0 18 14 31l258 186q14 12 31 13h65q20 0 21 -21v-1352q0 -20 -21 -20h-69q-20 0 -21 20v1223h-4l-252 -178q-8 -6 -15 -3t-7 15z" />
<glyph unicode="2" d="M170 20v54q0 16 8 26l514 674q53 68 84 134.5t31 138.5q0 115 -74 187.5t-192 72.5q-117 0 -182.5 -64.5t-84.5 -175.5q-4 -18 -24 -16l-64 16q-20 4 -16 23q8 63 35.5 121.5t75 103.5t113 71.5t149.5 26.5t153.5 -27.5t118.5 -75.5t76 -116t27 -147q0 -92 -38 -173 t-104 -167l-459 -598v-3h580q20 0 21 -20v-66q0 -20 -21 -20h-707q-20 0 -20 20z" />
<glyph unicode="3" d="M150 266q-6 20 14 27l65 16q20 6 27 -14q10 -37 31.5 -74t55.5 -67.5t83 -49t117 -18.5q131 0 207.5 81t76.5 208q0 63 -21.5 118.5t-59 94.5t-92 61.5t-119.5 22.5h-64q-20 0 -20 20v66q0 20 20 20h61q119 0 192 75t73 194q0 117 -70 188.5t-192 71.5 q-59 0 -104.5 -16.5t-77 -44t-52 -64.5t-29.5 -76q-4 -20 -22 -16l-68 18q-20 4 -16 25q10 53 38.5 104t75 90t111 62.5t146.5 23.5q86 0 154.5 -26.5t117.5 -75.5t74.5 -116t25.5 -146q0 -61 -16 -110.5t-43 -88.5t-60.5 -67.5t-66.5 -47.5v-4q35 -14 73 -43t69.5 -73 t52 -102t20.5 -134q0 -88 -28.5 -162t-81 -126t-125 -81.5t-160.5 -29.5t-156 24.5t-117 64.5t-78.5 91t-41.5 106z" />
<glyph unicode="4" d="M117 299v61q0 6 1 11.5t3 11.5l452 993q8 16 27 17h76q23 0 14 -19l-448 -987v-2h430q12 0 12 12v381q0 20 21 21h69q20 0 21 -21v-381q0 -12 12 -12h154q20 0 20 -20v-66q0 -20 -20 -20h-154q-12 0 -12 -13v-246q0 -20 -21 -20h-69q-20 0 -21 20v246q0 12 -12 13h-535 q-20 0 -20 20z" />
<glyph unicode="5" d="M186 274q-4 18 15 25l65 16q18 6 27 -16q16 -92 82.5 -152.5t183.5 -60.5q86 0 150.5 40t93.5 120q20 63 20 200q0 72 -6 121t-18 84q-25 78 -86.5 117t-149.5 39q-98 0 -161.5 -50t-84.5 -116q-6 -20 -20 -20h-68q-20 0 -20 20v731q0 20 20 21h658q20 0 20 -21v-65 q0 -20 -20 -21h-559q-12 0 -13 -12v-481h4q27 45 92.5 82.5t161.5 37.5q123 0 208 -55t120 -166q14 -43 23.5 -101.5t9.5 -144.5q0 -78 -7 -135t-22 -98q-37 -113 -128 -173t-216 -60q-80 0 -145.5 22.5t-113.5 61t-78 93t-38 117.5z" />
<glyph unicode="6" d="M139 399q0 84 25.5 163t64.5 151l346 665q8 14 27 15h76q10 0 13 -6.5t-1 -12.5l-313 -604l4 -2q27 23 74 36t106 13q84 0 155.5 -29.5t124 -84t82 -130t29.5 -170.5q0 -98 -30.5 -175.5t-84 -133t-128 -85t-162.5 -29.5q-90 0 -165 29.5t-128 83.5t-84 132t-31 174z M250 397q0 -139 82 -225t215 -86q66 0 120 22.5t93 63.5t60.5 98.5t21.5 126.5q0 70 -21.5 127.5t-60.5 98.5t-93.5 64.5t-119.5 23.5q-133 0 -215 -87.5t-82 -226.5z" />
<glyph unicode="7" d="M193 1083v289q0 20 20 21h705q20 0 20 -21v-76q0 -8 -4 -20l-500 -1258q-4 -10 -9 -14t-17 -4h-76q-20 0 -10 23l497 1257v6h-504q-12 0 -12 -12v-191q0 -20 -20 -20h-70q-20 0 -20 20z" />
<glyph unicode="8" d="M135 377q0 129 62.5 221t160.5 133v4q-82 41 -134 121t-52 191q0 78 26.5 144t76 115.5t118 78t152.5 28.5t152.5 -28.5t117.5 -78t76 -116t27 -143.5q0 -111 -52.5 -191t-134.5 -121v-4q98 -41 160.5 -133t62.5 -221q0 -88 -30.5 -161t-85 -125t-129 -81.5t-164.5 -29.5 t-165 29.5t-129 81.5t-85 125t-31 161zM246 381q0 -63 21.5 -117.5t60.5 -93.5t94 -61.5t123 -22.5t123 22.5t94 61.5t60.5 93t21.5 118q0 63 -21.5 118.5t-60.5 95.5t-94.5 62.5t-122.5 22.5q-68 0 -123 -22.5t-94 -62.5t-60.5 -95.5t-21.5 -118.5zM283 1047 q0 -55 18 -102.5t52 -83.5t83.5 -55.5t108.5 -19.5t107 19.5t83 55.5t53.5 83t18.5 103q0 55 -19.5 103t-53.5 83t-83 54.5t-106 19.5q-59 0 -107.5 -19.5t-82 -54.5t-53 -83t-19.5 -103z" />
<glyph unicode="9" d="M137 989q0 98 31 176t84 133.5t128 85t163 29.5t163.5 -29.5t129 -84t84 -132t30.5 -174.5q0 -84 -25.5 -162.5t-64.5 -150.5l-346 -666q-8 -14 -27 -14h-75q-10 0 -13.5 6t0.5 12l314 605l-4 2q-27 -23 -74 -36.5t-107 -13.5q-84 0 -155.5 30t-123.5 84t-82 130t-30 170 zM248 995q0 -70 21.5 -127t60.5 -99t93 -64.5t120 -22.5q133 0 215 87t82 226t-82 225.5t-215 86.5q-66 0 -120 -22.5t-93 -63.5t-60.5 -98.5t-21.5 -127.5z" />
<glyph unicode=":" horiz-adv-x="464" d="M162 20v138q0 20 20 20h101q20 0 20 -20v-138q0 -20 -20 -20h-101q-20 0 -20 20zM162 817v139q0 20 20 21h101q20 0 20 -21v-139q0 -20 -20 -20h-101q-20 0 -20 20z" />
<glyph unicode=";" horiz-adv-x="464" d="M162 817v139q0 20 20 21h101q20 0 20 -21v-139q0 -20 -20 -20h-101q-20 0 -20 20zM168 158q0 20 20 20h88q20 0 21 -20v-154q0 -16 -2 -24.5t-8 -20.5l-80 -158q-8 -16 -25 -16q-14 0 -14 18v355z" />
<glyph unicode="&#x3c;" d="M135 539v53q0 18 21 26l778 318q20 6 20 -14v-72q0 -18 -20 -27l-647 -256v-4l647 -256q20 -8 20 -26v-72q0 -20 -20 -14l-778 317q-20 8 -21 27z" />
<glyph unicode="=" d="M135 336v61q0 20 21 21h778q20 0 20 -21v-61q0 -20 -20 -21h-778q-20 0 -21 21zM135 733v62q0 20 21 20h778q20 0 20 -20v-62q0 -20 -20 -20h-778q-20 0 -21 20z" />
<glyph unicode="&#x3e;" d="M135 209v72q0 18 21 26l647 256v4l-647 256q-20 8 -21 27v72q0 20 21 14l778 -318q20 -8 20 -26v-53q0 -18 -20 -27l-778 -317q-20 -6 -21 14z" />
<glyph unicode="?" horiz-adv-x="913" d="M100 1098q23 139 117 227t248 88q80 0 144.5 -25.5t110.5 -69.5t71.5 -106.5t25.5 -136.5q0 -84 -28.5 -148.5t-96.5 -146.5l-112 -151q-20 -25 -34 -45.5t-21 -41t-9 -43t-2 -50.5v-72q0 -20 -20 -21h-72q-20 0 -21 21v80q0 63 13.5 107t52.5 93l113 150q39 47 62.5 83 t37.5 66.5t19.5 58t5.5 60.5q0 111 -69 171.5t-173 60.5q-102 0 -167 -59.5t-87 -170.5q-4 -20 -23 -16l-69 12q-20 4 -17 25zM385 20v138q0 20 21 20h102q20 0 20 -20v-138q0 -20 -20 -20h-102q-20 0 -21 20z" />
<glyph unicode="@" horiz-adv-x="1810" d="M100 547q0 178 59.5 326.5t166 255t254 165t325.5 58.5t326.5 -59.5t255 -165t166 -254t59.5 -326.5q0 -115 -24.5 -197t-67.5 -134t-100.5 -76.5t-122.5 -24.5q-86 0 -148.5 43t-91.5 116h-2q-35 -78 -107.5 -118.5t-173.5 -40.5q-109 0 -181 50t-107 154 q-12 41 -19.5 90.5t-7.5 127.5t7 127t20 90q35 104 107.5 154t176.5 50q98 0 160 -34.5t90 -85.5h4v80q0 20 19 20h61q18 0 19 -20v-502q0 -53 15 -92t40 -65t56.5 -38t66.5 -12q41 0 79 16.5t67.5 55t47 104.5t17.5 162q0 160 -51.5 290t-143.5 224t-222 145t-290 51 t-290 -51t-222 -145t-142 -224t-50 -290t50 -291t142 -225t222 -145.5t290 -51.5q154 0 260.5 27.5t188.5 70.5q16 10 26 -8l21 -47q6 -18 -10 -27q-92 -53 -208 -81.5t-278 -28.5q-178 0 -325.5 59.5t-254 166t-166 255t-59.5 326.5zM659 537q0 -63 5.5 -105.5t15.5 -75.5 q47 -145 211 -145q166 0 213 145q10 33 15 75t5 106q0 63 -5 105t-15 75q-47 145 -213 145q-164 0 -211 -145q-10 -33 -15.5 -75t-5.5 -105z" />
<glyph unicode="A" horiz-adv-x="1220" d="M63 20l488 1352q6 20 24 21h74q18 0 25 -21l483 -1352q1 -5 1 -8q0 -12 -15 -12h-80q-23 0 -27 20l-123 342h-606l-123 -342q-8 -20 -26 -20h-80q-16 0 -16 13q0 3 1 7zM346 475h528l-260 729h-6z" />
<glyph unicode="B" horiz-adv-x="1230" d="M193 20v1352q0 20 20 21h467q199 0 302 -97.5t103 -263.5q0 -129 -58 -206.5t-157 -106.5v-4q39 -8 81 -32t77 -66t57.5 -100t22.5 -134q0 -180 -110.5 -281.5t-317.5 -101.5h-467q-20 0 -20 20zM309 123q0 -12 13 -12h366q150 0 226.5 73.5t76.5 196.5t-76.5 197.5 t-226.5 74.5h-366q-12 0 -13 -12v-518zM309 776q0 -12 13 -12h356q141 0 216 71.5t75 186.5q0 121 -75 190.5t-216 69.5h-356q-12 0 -13 -12v-494z" />
<glyph unicode="C" horiz-adv-x="1138" d="M133 696q0 92 3 157t7 112t11.5 78.5t15.5 58.5q53 158 163.5 234.5t276.5 76.5q143 0 252 -64.5t168 -193.5q3 -7 3 -12q0 -9 -9 -15l-68 -32q-16 -10 -26 8q-47 90 -124 144.5t-196 54.5q-129 0 -207.5 -58.5t-119.5 -173.5q-6 -20 -12.5 -49t-10.5 -72t-6 -104.5 t-2 -149.5t2 -149.5t6 -104.5t10 -71.5t13 -48.5q41 -115 119.5 -173.5t207.5 -58.5q119 0 196 54.5t124 144.5q10 18 26 8l68 -33q9 -5 9 -14q0 -5 -3 -12q-59 -129 -167.5 -193.5t-252.5 -64.5q-166 0 -276.5 76.5t-163.5 234.5q-8 27 -15.5 58.5t-11.5 78.5t-7 111.5 t-3 156.5z" />
<glyph unicode="D" horiz-adv-x="1269" d="M193 20v1352q0 20 20 21h436q352 0 445 -283q10 -31 17 -63.5t12 -78.5t7 -111.5t3 -160.5q0 -96 -2.5 -160.5t-7.5 -110.5t-12 -79t-17 -63q-92 -283 -445 -283h-436q-20 0 -20 20zM309 123q0 -12 13 -12h311q135 0 223 50t125 161q8 25 14 53t10.5 70t6.5 102.5 t2 148.5t-2 148.5t-6.5 102.5t-10.5 71t-14 53q-37 111 -125 161t-223 50h-311q-12 0 -13 -12v-1147z" />
<glyph unicode="E" horiz-adv-x="1138" d="M193 20v1352q0 20 20 21h797q20 0 20 -21v-69q0 -20 -20 -21h-688q-12 0 -13 -12v-496q0 -12 13 -12h591q20 0 21 -21v-69q0 -20 -21 -21h-591q-12 0 -13 -12v-516q0 -12 13 -12h688q20 0 20 -21v-70q0 -20 -20 -20h-797q-20 0 -20 20z" />
<glyph unicode="F" horiz-adv-x="1128" d="M193 20v1352q0 20 20 21h797q20 0 20 -21v-69q0 -20 -20 -21h-688q-12 0 -13 -12v-510q0 -12 13 -12h591q20 0 21 -21v-70q0 -20 -21 -20h-591q-12 0 -13 -12v-605q0 -20 -20 -20h-76q-20 0 -20 20z" />
<glyph unicode="G" horiz-adv-x="1247" d="M133 696q0 90 3 154.5t8.5 112t12.5 79t15 58.5q51 156 167 234.5t288 78.5q86 0 154.5 -19.5t122.5 -54t94 -82t65 -102.5q8 -18 -8 -27l-66 -32q-18 -6 -26 8q-53 96 -133 147.5t-205 51.5q-262 0 -340 -236q-6 -20 -12.5 -48t-11.5 -71t-7 -104.5t-2 -147.5t2 -147.5 t7 -104.5t11.5 -70.5t12.5 -47.5q78 -236 340 -236q127 0 214 58.5t126 173.5q14 41 23 103t9 163q0 12 -12 12h-315q-20 0 -21 21v67q0 20 21 21h424q20 0 20 -21v-84q0 -104 -10 -183t-27 -126q-49 -156 -165.5 -235.5t-284.5 -79.5q-172 0 -288 78.5t-167 234.5 q-8 27 -15 58.5t-12.5 78.5t-8.5 111.5t-3 154.5z" />
<glyph unicode="H" horiz-adv-x="1331" d="M193 20v1352q0 20 20 21h76q20 0 20 -21v-598q0 -12 13 -12h688q12 0 12 12v598q0 20 20 21h76q20 0 21 -21v-1352q0 -20 -21 -20h-76q-20 0 -20 20v619q0 12 -12 12h-688q-12 0 -13 -12v-619q0 -20 -20 -20h-76q-20 0 -20 20z" />
<glyph unicode="I" horiz-adv-x="501" d="M193 20v1352q0 20 20 21h76q20 0 20 -21v-1352q0 -20 -20 -20h-76q-20 0 -20 20z" />
<glyph unicode="J" horiz-adv-x="970" d="M80 123l55 51q14 14 31 0q37 -31 95 -57.5t124 -26.5q133 0 211 77t78 251v954q0 20 20 21h76q20 0 21 -21v-954q0 -225 -111 -331.5t-297 -106.5q-92 0 -172 33.5t-129 80.5q-9 7 -9 15q0 7 7 14z" />
<glyph unicode="K" horiz-adv-x="1222" d="M193 20v1352q0 20 20 21h76q20 0 20 -21v-803l664 805q18 18 35 19h96q10 0 13 -7.5t-5 -15.5l-440 -526l475 -821q4 -7 4 -12q0 -3 -1 -5q-3 -6 -13 -6h-93q-18 0 -30 18l-420 732l-285 -340v-390q0 -20 -20 -20h-76q-20 0 -20 20z" />
<glyph unicode="L" horiz-adv-x="1085" d="M193 20v1352q0 20 20 21h76q20 0 20 -21v-1249q0 -12 13 -12h688q20 0 20 -21v-70q0 -20 -20 -20h-797q-20 0 -20 20z" />
<glyph unicode="M" horiz-adv-x="1546" d="M193 20v1352q0 20 20 21h78q23 0 31 -21l452 -997h8l443 997q8 20 28 21h80q20 0 21 -21v-1352q0 -20 -21 -20h-76q-20 0 -20 20v1090h-6l-402 -883q-6 -12 -13 -17t-23 -5h-41q-25 0 -35 22l-402 883h-6v-1090q0 -20 -20 -20h-76q-20 0 -20 20z" />
<glyph unicode="N" horiz-adv-x="1333" d="M193 20v1352q0 20 20 21h76q25 0 35 -21l694 -1145h6v1145q0 20 20 21h76q20 0 21 -21v-1352q0 -20 -21 -20h-80q-23 0 -34 20l-689 1147h-8v-1147q0 -20 -20 -20h-76q-20 0 -20 20z" />
<glyph unicode="O" horiz-adv-x="1247" d="M133 696q0 90 3 153.5t8.5 110t12.5 79t17 61.5q51 154 165 233.5t286 79.5q170 0 283.5 -80t164.5 -233q8 -29 16.5 -61.5t13.5 -79t8 -110t3 -153.5t-3 -153.5t-8 -109.5t-13.5 -80t-16.5 -60q-51 -154 -164.5 -233.5t-283.5 -79.5q-172 0 -286 79.5t-165 233.5 q-10 27 -17 60.5t-12.5 79.5t-8.5 109.5t-3 153.5zM252 696q0 -84 3 -145.5t7 -104.5t11.5 -71.5t13.5 -48.5q78 -236 338 -236q258 0 336 236q6 20 13 48.5t11 71.5t7 104.5t3 145.5t-3 145.5t-7 104.5t-11 72t-13 49q-78 236 -336 236q-260 0 -338 -236q-6 -20 -13.5 -49 t-11.5 -72t-7 -104.5t-3 -145.5z" />
<glyph unicode="P" horiz-adv-x="1198" d="M193 20v1352q0 20 20 21h465q201 0 314.5 -105.5t113.5 -290.5q0 -184 -113.5 -288.5t-314.5 -104.5h-356q-12 0 -13 -12v-572q0 -20 -20 -20h-76q-20 0 -20 20zM309 727q0 -12 13 -12h352q154 0 234.5 73.5t80.5 208.5t-81 210t-234 75h-352q-12 0 -13 -12v-543z" />
<glyph unicode="Q" horiz-adv-x="1247" d="M133 696q0 90 3 153.5t8.5 110t12.5 79t17 61.5q51 154 165 233.5t286 79.5q170 0 283.5 -80t164.5 -233q8 -29 16.5 -61.5t13.5 -79t8 -110t3 -153.5t-3 -153.5t-8 -109.5t-13.5 -80t-16.5 -60q-12 -39 -28.5 -72t-36.5 -61l143 -150q7 -7 7 -13q0 -8 -9 -15l-49 -48 q-8 -7 -16 -7t-15 7l-135 146q-123 -100 -309 -100q-172 0 -286 79.5t-165 233.5q-10 27 -17 60.5t-12.5 79.5t-8.5 109.5t-3 153.5zM252 696q0 -84 3 -145.5t7 -104.5t11.5 -71.5t13.5 -48.5q78 -236 338 -236q141 0 231 74l-168 180q-14 14 0 29l51 47q16 12 29 -2 l158 -170q10 18 18 36.5t17 41.5q6 20 13 48.5t11 71.5t7 104.5t3 145.5t-3 145.5t-7 104.5t-11 72t-13 49q-78 236 -336 236q-260 0 -338 -236q-6 -20 -13.5 -49t-11.5 -72t-7 -104.5t-3 -145.5z" />
<glyph unicode="R" horiz-adv-x="1259" d="M193 20v1352q0 20 20 21h467q199 0 311.5 -102.5t112.5 -282.5q0 -145 -75 -240.5t-210 -128.5l303 -616q4 -7 4 -12q0 -3 -1 -5q-3 -6 -13 -6h-94q-16 0 -25 18l-293 605h-20h-358q-12 0 -13 -13v-590q0 -20 -20 -20h-76q-20 0 -20 20zM309 745q0 -12 13 -12h356 q150 0 229.5 70.5t79.5 204.5q0 131 -80 202.5t-229 71.5h-356q-12 0 -13 -12v-525z" />
<glyph unicode="S" horiz-adv-x="1220" d="M131 170l49 61q14 16 29 2q70 -53 173 -98t226 -45q168 0 264.5 78t96.5 207q0 51 -16.5 95t-54.5 79t-102.5 59.5t-160.5 36.5l-64 8q-205 27 -303 121t-98 248q0 182 119 286.5t319 104.5q117 0 221.5 -31.5t176.5 -85.5q18 -10 4 -28l-41 -64q-12 -14 -29 -4 q-84 51 -166 77t-172 26q-150 0 -232.5 -75t-82.5 -198q0 -106 74.5 -174t252.5 -90l64 -8q213 -29 310 -124t97 -251q0 -88 -31.5 -162t-93 -128t-153.5 -83.5t-213 -29.5q-68 0 -135.5 13t-128 35.5t-110.5 52.5t-87 60q-9 7 -9 15q0 7 7 14z" />
<glyph unicode="T" horiz-adv-x="1075" d="M45 1303v69q0 20 21 21h944q20 0 20 -21v-69q0 -20 -20 -21h-402q-12 0 -12 -12v-1250q0 -20 -21 -20h-75q-20 0 -21 20v1250q0 12 -12 12h-401q-20 0 -21 21z" />
<glyph unicode="U" horiz-adv-x="1300" d="M178 481v891q0 20 21 21h75q20 0 21 -21v-893q0 -199 94 -294t260 -95q168 0 262.5 95.5t94.5 293.5v893q0 20 20 21h76q20 0 20 -21v-891q0 -127 -33.5 -221t-95 -156.5t-148.5 -93t-196 -30.5q-215 0 -343 122.5t-128 378.5z" />
<glyph unicode="V" horiz-adv-x="1146" d="M55 1364q-4 9 -4 15q0 14 19 14h71q23 0 31 -21l403 -1177h5l393 1177q8 20 28 21h74q20 0 20 -15q0 -6 -3 -14l-459 -1344q-6 -20 -25 -20h-69q-16 0 -23 20z" />
<glyph unicode="W" horiz-adv-x="1673" d="M66 1370q-1 5 -1 9q0 14 17 14h74q25 0 26 -21l275 -1147h4l321 1147q6 20 25 21h61q18 0 25 -21l326 -1147h4l268 1147q4 20 27 21h73q18 0 18 -14q0 -4 -1 -9l-330 -1350q-4 -20 -23 -20h-67q-16 0 -23 20l-325 1141h-4l-328 -1141q-6 -20 -23 -20h-65q-18 0 -25 20z " />
<glyph unicode="X" horiz-adv-x="1116" d="M68 23l424 708l-381 639q-6 10 -3 16.5t13 6.5h92q16 0 27 -19l317 -526h2l318 526q12 18 26 19h92q20 0 11 -23l-383 -639l426 -708q3 -7 3 -12q0 -11 -16 -11h-92q-18 0 -26 18l-359 596h-2l-360 -596q-10 -18 -27 -18h-92q-15 0 -15 9q0 6 5 14z" />
<glyph unicode="Y" horiz-adv-x="1054" d="M51 1370q-2 4 -2 7q0 4 3 9q5 7 16 7h79q20 0 31 -21l350 -665h7l344 665q10 20 30 21h78q12 0 17 -7q2 -4 2 -9q0 -3 -2 -7l-418 -799v-551q0 -20 -21 -20h-76q-20 0 -20 20v551z" />
<glyph unicode="Z" horiz-adv-x="1105" d="M109 20v68q0 14 10 31l739 1161v2h-702q-20 0 -21 21v69q0 20 21 21h819q20 0 20 -21v-67q0 -16 -10 -31l-739 -1161v-2h729q20 0 20 -21v-70q0 -20 -20 -20h-846q-20 0 -20 20z" />
<glyph unicode="[" horiz-adv-x="579" d="M205 -152v1647q0 20 20 21h244q20 0 20 -21v-55q0 -20 -20 -21h-145q-12 0 -13 -12v-1470q0 -12 13 -13h145q20 0 20 -20v-56q0 -20 -20 -20h-244q-20 0 -20 20z" />
<glyph unicode="\" horiz-adv-x="833" d="M139 1393q-6 20 15 20h61q20 0 27 -20l452 -1393q6 -20 -14 -20h-62q-20 0 -26 20z" />
<glyph unicode="]" horiz-adv-x="579" d="M90 -96q0 20 21 20h145q12 0 12 13v1470q0 12 -12 12h-145q-20 0 -21 21v55q0 20 21 21h243q20 0 21 -21v-1647q0 -20 -21 -20h-243q-20 0 -21 20v56z" />
<glyph unicode="^" d="M137 598l355 774q10 20 28 21h49q18 0 29 -21l352 -774q10 -20 -12 -20h-66q-18 0 -26 20l-299 651h-4l-301 -651q-8 -20 -27 -20h-63q-10 0 -14.5 5t-0.5 15z" />
<glyph unicode="_" horiz-adv-x="940" d="M0 -168h940v-84h-940v84z" />
<glyph unicode="`" horiz-adv-x="862" d="M288 1427.5q3 6.5 13 6.5h78q20 0 33 -21l157 -250q6 -10 3 -15t-13 -5h-51q-12 0 -19.5 5t-17.5 15l-180 250q-6 8 -3 14.5z" />
<glyph unicode="a" horiz-adv-x="1050" d="M135 268q0 147 95.5 218t275.5 71h248q12 0 12 12v101q0 59 -11.5 102t-41 70.5t-78.5 40t-123 12.5q-90 0 -146.5 -19.5t-99.5 -54.5q-18 -14 -30 2l-35 51q-10 16 6 29q53 45 130 69.5t181 24.5q94 0 162 -16t111 -55t63 -100.5t20 -151.5v-654q0 -20 -20 -20h-66 q-20 0 -20 20v103h-2q-29 -61 -105.5 -102t-197.5 -41q-147 0 -237.5 72.5t-90.5 215.5zM244 270q0 -92 62 -140t179 -48q127 0 204 59.5t77 159.5v150q0 12 -12 12h-234q-147 0 -211.5 -47t-64.5 -146z" />
<glyph unicode="b" horiz-adv-x="1087" d="M188 20v1352q0 20 21 21h70q20 0 20 -21v-534h2q35 70 104.5 114.5t192.5 44.5q254 0 332 -233q18 -59 26.5 -126t8.5 -151q0 -82 -8.5 -148.5t-26.5 -125.5q-78 -233 -332 -233q-123 0 -192.5 45t-104.5 114h-2v-119q0 -20 -20 -20h-70q-20 0 -21 20zM299 487 q0 -80 6 -134t21 -95q29 -86 93 -129t156 -43q98 0 160 44t90 128q16 47 21.5 105.5t5.5 123.5q0 66 -5 125.5t-22 106.5q-29 84 -90 128t-160 44q-92 0 -156.5 -43t-92.5 -129q-14 -41 -20.5 -96.5t-6.5 -135.5z" />
<glyph unicode="c" horiz-adv-x="962" d="M123 487q0 88 8 148.5t23 107.5q39 121 134 187.5t230 66.5q117 0 197 -47t133 -137q4 -6 4 -12q0 -9 -10 -15l-58 -36q-16 -10 -26 8q-43 68 -98.5 100.5t-141.5 32.5q-96 0 -161.5 -46t-94.5 -138q-14 -41 -20 -92.5t-6 -127.5t6 -126t20 -91q29 -92 94.5 -138 t161.5 -46q86 0 141.5 33t98.5 100q10 18 26 8l58 -37q10 -6 10 -15q0 -5 -4 -11q-53 -90 -133 -137t-197 -47q-135 0 -230 66.5t-134 186.5q-14 47 -22.5 106.5t-8.5 147.5z" />
<glyph unicode="d" horiz-adv-x="1087" d="M123 487q0 84 7 151t28 126q74 233 331 233q123 0 193 -45t104 -114h2v534q0 20 21 21h70q20 0 20 -21v-1352q0 -20 -20 -20h-70q-20 0 -21 20v119h-2q-35 -70 -104.5 -114.5t-192.5 -44.5q-258 0 -331 233q-20 59 -27.5 126t-7.5 148zM236 487q0 -66 5 -124t21 -105 q29 -84 91.5 -128t158.5 -44q92 0 156.5 43t93.5 129q14 41 20 95.5t6 133.5q0 80 -6 135.5t-20 96.5q-29 86 -93.5 129t-156.5 43q-96 0 -158.5 -44t-91.5 -128q-16 -47 -21 -106.5t-5 -125.5z" />
<glyph unicode="e" horiz-adv-x="1028" d="M123 489q0 92 7 150.5t22 103.5q41 123 135 188.5t227 65.5t228.5 -65.5t136.5 -188.5q16 -47 22 -102t6 -158q0 -20 -22 -20h-637q-12 0 -12 -14q0 -61 5 -99.5t15 -73.5q35 -98 105.5 -144t170.5 -46q96 0 163 36t110 89q12 16 29 4l47 -43q14 -12 2 -29 q-53 -72 -143.5 -117.5t-213.5 -45.5q-143 0 -238 65.5t-136 192.5q-14 45 -21.5 101t-7.5 150zM236 569q0 -12 12 -12h534q12 0 13 12q0 45 -4.5 79t-14.5 63q-29 92 -96.5 138t-165.5 46q-96 0 -163.5 -46t-96.5 -138q-10 -29 -14 -63t-4 -79z" />
<glyph unicode="f" horiz-adv-x="630" d="M84 899v57q0 20 20 21h105q12 0 12 12v105q0 88 14.5 145t47 91t85 48.5t126.5 14.5h57q20 0 20 -21v-65q0 -20 -20 -21h-43q-55 0 -90 -7t-54.5 -26.5t-25.5 -54.5t-6 -90v-119q0 -12 12 -12h207q20 0 20 -21v-57q0 -20 -20 -20h-207q-12 0 -12 -13v-846q0 -20 -21 -20 h-69q-20 0 -21 20v846q0 12 -12 13h-105q-20 0 -20 20z" />
<glyph unicode="g" horiz-adv-x="1069" d="M121 496q0 88 8 150.5t25 115.5q37 113 119.5 174t205.5 61q119 0 186.5 -44t102.5 -115h2v118q0 20 21 21h69q20 0 21 -21v-938q0 -205 -104 -306t-288 -101q-106 0 -194 41t-129 100q-10 16 4 29l51 45q16 12 29 -4q92 -104 242 -105q131 0 204.5 69t73.5 228v142h-2 q-35 -72 -102.5 -116t-186.5 -44q-123 0 -206 60.5t-119 172.5q-16 53 -24.5 116t-8.5 151zM233 496q0 -145 29 -224q56 -172 240 -172q86 0 149.5 40t93.5 132q14 41 19.5 93.5t5.5 130.5t-5 130t-20 93q-31 92 -94 132t-149 40q-182 0 -240 -170q-16 -43 -22.5 -97.5 t-6.5 -127.5z" />
<glyph unicode="h" horiz-adv-x="1107" d="M188 20v1352q0 20 21 21h70q20 0 20 -21v-532h2q37 72 110.5 114.5t178.5 42.5q164 0 253 -96t89 -276v-605q0 -20 -21 -20h-69q-20 0 -21 20v578q0 293 -256 293q-113 0 -189.5 -71.5t-76.5 -201.5v-598q0 -20 -20 -20h-70q-20 0 -21 20z" />
<glyph unicode="i" horiz-adv-x="487" d="M178 1257v115q0 20 21 21h90q20 0 20 -21v-115q0 -20 -20 -20h-90q-20 0 -21 20zM188 20v936q0 20 21 21h70q20 0 20 -21v-936q0 -20 -20 -20h-70q-20 0 -21 20z" />
<glyph unicode="j" horiz-adv-x="487" d="M4 -283q0 20 21 21h18q82 0 113.5 29.5t31.5 119.5v1069q0 20 21 21h70q20 0 20 -21v-1067q0 -143 -58.5 -200.5t-193.5 -57.5h-22q-20 0 -21 21v65zM178 1257v115q0 20 21 21h90q20 0 20 -21v-115q0 -20 -20 -20h-90q-20 0 -21 20z" />
<glyph unicode="k" horiz-adv-x="1024" d="M188 20v1352q0 20 21 21h70q20 0 20 -21v-938l442 522q10 10 16.5 15.5t18.5 5.5h84q10 0 13.5 -7t-3.5 -14l-288 -342l364 -594q2 -5 2 -8t-1 -6q-3 -6 -13 -6h-84q-18 0 -31 20l-311 506l-209 -245v-261q0 -20 -20 -20h-70q-20 0 -21 20z" />
<glyph unicode="l" horiz-adv-x="536" d="M186 223v1149q0 20 21 21h69q20 0 21 -21v-1145q0 -72 24.5 -99.5t79.5 -27.5h35q20 0 21 -20v-66q0 -20 -21 -20h-47q-111 0 -157 53t-46 176z" />
<glyph unicode="m" horiz-adv-x="1740" d="M188 20v936q0 20 21 21h70q20 0 20 -21v-116h2q37 72 110.5 114.5t178.5 42.5q227 0 303 -182h2q43 86 122 134t200 48q166 0 257 -96t91 -276v-605q0 -20 -21 -20h-69q-20 0 -21 20v578q0 293 -258 293q-113 0 -188.5 -71.5t-75.5 -201.5v-598q0 -20 -21 -20h-69 q-20 0 -21 20v578q0 293 -256 293q-113 0 -189.5 -71.5t-76.5 -201.5v-598q0 -20 -20 -20h-70q-20 0 -21 20z" />
<glyph unicode="n" horiz-adv-x="1107" d="M188 20v936q0 20 21 21h70q20 0 20 -21v-116h2q37 72 110.5 114.5t178.5 42.5q164 0 253 -96t89 -276v-605q0 -20 -21 -20h-69q-20 0 -21 20v578q0 293 -256 293q-113 0 -189.5 -71.5t-76.5 -201.5v-598q0 -20 -20 -20h-70q-20 0 -21 20z" />
<glyph unicode="o" horiz-adv-x="1042" d="M123 489q0 88 8 146.5t25 107.5q41 123 135 188.5t229 65.5t230.5 -65.5t136.5 -188.5q16 -49 24.5 -107t8.5 -147q0 -90 -8.5 -148t-24.5 -108q-41 -123 -136.5 -188t-230.5 -65t-229 65.5t-135 187.5q-16 49 -24.5 107.5t-8.5 148.5zM236 489q0 -80 6 -130t20 -91 q29 -88 96.5 -135t161.5 -47q96 0 164 47t96 135q14 41 20.5 91.5t6.5 129.5q0 78 -6 128.5t-21 91.5q-29 88 -96.5 135t-163.5 47q-94 0 -161.5 -47t-96.5 -135q-14 -41 -20 -91.5t-6 -128.5z" />
<glyph unicode="p" horiz-adv-x="1087" d="M188 -348v1304q0 20 21 21h70q20 0 20 -21v-118h2q35 70 104.5 114.5t192.5 44.5q254 0 332 -233q18 -59 26.5 -126t8.5 -151q0 -82 -8.5 -148.5t-26.5 -125.5q-78 -233 -332 -233q-123 0 -192.5 45t-104.5 114h-2v-487q0 -20 -20 -21h-70q-20 0 -21 21zM299 487 q0 -80 6 -134t21 -95q29 -86 93 -129t156 -43q98 0 160 44t90 128q16 47 21.5 105.5t5.5 123.5q0 66 -5 125.5t-22 106.5q-29 84 -90 128t-160 44q-92 0 -156.5 -43t-92.5 -129q-14 -41 -20.5 -96.5t-6.5 -135.5z" />
<glyph unicode="q" horiz-adv-x="1087" d="M123 487q0 84 8 151t27 126q76 233 331 233q123 0 193 -45t104 -114h2v118q0 20 21 21h70q20 0 20 -21v-1304q0 -20 -20 -21h-70q-20 0 -21 21v487h-2q-35 -70 -104.5 -114.5t-192.5 -44.5q-256 0 -331 233q-18 59 -26.5 126t-8.5 148zM236 487q0 -66 5 -124t21 -105 q29 -84 90.5 -128t159.5 -44q92 0 156.5 43t93.5 129q14 41 20 95.5t6 133.5q0 80 -6 135.5t-20 96.5q-29 86 -93.5 129t-156.5 43q-98 0 -159.5 -44t-90.5 -128q-16 -47 -21 -106.5t-5 -125.5z" />
<glyph unicode="r" horiz-adv-x="811" d="M188 20v936q0 20 21 21h70q20 0 20 -21v-125h2q29 72 93.5 119t168.5 47q59 0 110.5 -18t86.5 -49q9 -6 9 -14q0 -6 -5 -13l-41 -57q-10 -14 -31 -4q-35 23 -71.5 36t-83.5 13q-66 0 -111 -26.5t-72.5 -70.5t-41 -104.5t-13.5 -128.5v-541q0 -20 -20 -20h-70 q-20 0 -21 20z" />
<glyph unicode="s" horiz-adv-x="985" d="M113 117q-7 7 -7 14t7 14l45 52q12 12 28 0q57 -47 137 -81t181 -34q129 0 191.5 51t62.5 137q0 37 -9.5 66t-35 50.5t-68.5 34.5t-110 21l-99 11q-137 14 -210.5 78.5t-73.5 181.5q0 135 91 209.5t253 74.5q100 0 183 -27.5t142 -66.5q16 -12 4 -29l-37 -49 q-10 -16 -28 -6q-47 29 -120 52.5t-151 23.5q-113 0 -170 -46t-57 -128q0 -72 50 -112t175 -52l99 -10q143 -14 212.5 -81t69.5 -181q0 -141 -95 -223t-279 -82q-66 0 -123.5 12t-105.5 32.5t-86 44t-66 48.5z" />
<glyph unicode="t" horiz-adv-x="636" d="M80 899v57q0 20 20 21h103q12 0 12 12v281q0 20 21 20h69q20 0 21 -20v-281q0 -12 12 -12h184q20 0 21 -21v-57q0 -20 -21 -20h-184q-12 0 -12 -13v-602q0 -98 35.5 -131t121.5 -33h39q20 0 21 -20v-66q0 -20 -21 -20h-53q-139 0 -196.5 59.5t-57.5 204.5v608 q0 12 -12 13h-103q-20 0 -20 20z" />
<glyph unicode="u" horiz-adv-x="1095" d="M172 350v606q0 20 21 21h69q20 0 21 -21v-577q0 -293 252 -293q55 0 103 18.5t83 54.5t55.5 86t20.5 113v598q0 20 20 21h70q20 0 20 -21v-936q0 -20 -20 -20h-70q-20 0 -20 20v115h-2q-37 -72 -111 -113.5t-174 -41.5q-164 0 -251 96t-87 274z" />
<glyph unicode="v" horiz-adv-x="958" d="M68 956q-1 4 -1 8q0 13 17 13h76q18 0 26 -21l295 -782h2l289 782q8 20 27 21h75q18 0 18 -13q0 -3 -1 -8l-354 -936q-6 -20 -25 -20h-66q-18 0 -24 20z" />
<glyph unicode="w" horiz-adv-x="1507" d="M80 956q-1 5 -1 8q0 12 15 13h74q18 0 27 -21l249 -780h2l254 780q6 20 25 21h59q18 0 25 -21l258 -780h2l244 780q8 20 26 21h74q15 0 15 -12q0 -4 -1 -9l-305 -936q-6 -20 -24 -20h-64q-18 0 -24 20l-254 781h-2l-258 -781q-6 -20 -25 -20h-61q-18 0 -25 20z" />
<glyph unicode="x" horiz-adv-x="948" d="M77 6q-1 3 -1 6q0 4 2 8l334 492l-301 444q-4 8 -1 14.5t13 6.5h84q18 0 29 -16l237 -353h2l240 353q10 16 28 16h82q10 0 13.5 -6t-0.5 -15l-303 -444l335 -492q2 -5 2 -8t-1 -6q-3 -6 -13 -6h-84q-18 0 -29 16l-270 398h-2l-272 -398q-10 -16 -29 -16h-82q-10 0 -13 6z " />
<glyph unicode="y" horiz-adv-x="956" d="M68 956q-1 5 -1 8q0 12 15 13h78q18 0 26 -21l297 -784h2l289 784q6 20 25 21h78q15 0 15 -12q0 -4 -1 -9l-399 -1050q-31 -84 -62 -137.5t-63.5 -84t-70.5 -42t-85 -11.5h-43q-20 0 -21 21v65q0 20 21 21h37q31 0 56.5 8t47 27.5t41 55.5t39.5 91l39 100z" />
<glyph unicode="z" horiz-adv-x="956" d="M119 20v62q0 14 10 27l580 759v2h-543q-20 0 -21 21v65q0 20 21 21h655q20 0 21 -21v-65q0 -14 -11 -27l-577 -755v-5h567q20 0 21 -20v-64q0 -20 -21 -20h-682q-20 0 -20 20z" />
<glyph unicode="{" horiz-adv-x="651" d="M145 643v66q0 16 21 20q53 4 85 40t32 132v399q0 115 45 165.5t143 50.5h70q20 0 20 -21v-55q0 -20 -20 -21h-54q-51 0 -75.5 -26.5t-24.5 -87.5v-392q0 -117 -24.5 -166t-79.5 -69v-4q27 -10 47 -26.5t32.5 -43t18.5 -66.5t6 -100v-399q0 -61 24.5 -88t75.5 -27h54 q20 0 20 -20v-56q0 -20 -20 -20h-70q-98 0 -143 50t-45 165v408q0 96 -32 131.5t-85 40.5q-20 4 -21 20z" />
<glyph unicode="|" horiz-adv-x="503" d="M203 -152v1647q0 20 20 21h58q20 0 20 -21v-1647q0 -20 -20 -20h-58q-20 0 -20 20z" />
<glyph unicode="}" horiz-adv-x="651" d="M90 -96q0 20 21 20h53q51 0 75.5 26.5t24.5 88.5v399q0 59 6 99.5t18.5 67t32 43t48.5 26.5v4q-55 20 -80 69.5t-25 165.5v392q0 61 -24.5 87.5t-75.5 26.5h-53q-20 0 -21 21v55q0 20 21 21h69q98 0 143.5 -50.5t45.5 -165.5v-399q0 -96 31.5 -132t84.5 -40q20 -4 21 -20 v-66q0 -16 -21 -20q-53 -4 -84.5 -40t-31.5 -132v-408q0 -115 -45 -165t-144 -50h-69q-20 0 -21 20v56z" />
<glyph unicode="~" d="M125 522q39 76 102.5 119t141.5 43q66 0 112.5 -25.5t87.5 -54.5q35 -25 73 -45t79 -20q53 0 91 28.5t75 87.5q10 18 31 4l38 -24q16 -10 7 -29q-39 -76 -102.5 -120t-141.5 -44q-63 0 -111.5 26t-89.5 54q-35 25 -72.5 45.5t-78.5 20.5q-53 0 -91 -28t-75 -89 q-10 -16 -29 -4l-41 27q-14 10 -6 28z" />
<glyph unicode="&#xa1;" horiz-adv-x="544" d="M201 819v137q0 20 20 21h103q20 0 20 -21v-137q0 -20 -20 -20h-103q-20 0 -20 20zM211 -395l16 989q0 20 21 20h47q20 0 20 -20l17 -989q0 -20 -21 -21h-80q-20 0 -20 21z" />
<glyph unicode="&#xa2;" d="M178 487q0 88 9.5 148.5t23.5 107.5q35 109 116 174.5t201 75.5v170q0 20 21 21h37q20 0 20 -21v-166q111 -6 186.5 -53t120.5 -129q10 -16 -6 -29l-49 -41q-6 -6 -15 -4t-14 11q-41 68 -91 101.5t-132 37.5v-805q82 4 132 39t91 100q4 8 13.5 10.5t15.5 -4.5l49 -41 q14 -14 6 -30q-45 -76 -120.5 -125t-186.5 -55v-168q0 -20 -20 -21h-37q-20 0 -21 21v172q-121 10 -201.5 74.5t-115.5 174.5q-14 45 -23.5 106.5t-9.5 147.5zM291 487q0 -74 7 -126t21 -93q49 -158 209 -180v799q-160 -23 -209 -180q-14 -41 -21 -92.5t-7 -127.5z" />
<glyph unicode="&#xa3;" d="M164 629v55q0 20 20 21h103q12 0 12 12v346q0 170 85 260t226 90q121 0 197 -67.5t102 -178.5q2 -18 -16 -24l-66 -19q-20 -6 -24 15q-18 80 -68.5 124t-126.5 44q-86 0 -141 -55.5t-55 -174.5v-360q0 -12 12 -12h278q20 0 21 -21v-55q0 -20 -21 -21h-278q-12 0 -12 -12 v-268q0 -78 -15.5 -128t-50.5 -91v-3h555q20 0 21 -20v-66q0 -20 -21 -20h-672q-20 0 -20 20v64q0 12 10 22q25 25 40 45.5t24.5 43t12.5 51t3 69.5v281q0 12 -12 12h-103q-20 0 -20 21z" />
<glyph unicode="&#xa4;" d="M106 264q-14 14 0 29l130 129q-76 100 -76 240q0 70 20.5 130t57.5 109l-132 131q-14 14 0 29l41 45q14 14 29 0l133 -133q47 37 107.5 57.5t130.5 20.5q68 0 127 -20.5t108 -57.5l133 133q16 16 29 0l41 -45q16 -16 0 -29l-131 -131q37 -49 57.5 -109.5t20.5 -129.5 q0 -70 -20.5 -130.5t-55.5 -107.5l131 -131q12 -16 0 -29l-41 -47q-16 -12 -28 0l-134 133q-49 -37 -109.5 -57.5t-127.5 -20.5q-70 0 -130.5 20.5t-109.5 57.5l-131 -131q-14 -14 -29 0zM260 662q0 -61 21.5 -114.5t59.5 -93.5t91.5 -62.5t114.5 -22.5t113.5 22.5t90 62.5 t59 93t21.5 115q0 61 -21.5 114t-59 93t-90 62.5t-113.5 22.5t-114.5 -22.5t-91.5 -62.5t-59.5 -93t-21.5 -114z" />
<glyph unicode="&#xa5;" d="M123 1366q-4 10 0 18.5t16 8.5h72q23 0 31 -21l303 -670h4l301 670q8 20 31 21h69q12 0 16.5 -8.5t0.5 -18.5l-330 -702v-2h246q20 0 20 -21v-51q0 -20 -20 -21h-271q-12 0 -12 -12v-123q0 -12 12 -12h271q20 0 20 -21v-51q0 -20 -20 -20h-271q-12 0 -12 -13v-297 q0 -20 -20 -20h-70q-20 0 -21 20v297q0 12 -12 13h-270q-20 0 -21 20v51q0 20 21 21h270q12 0 12 12v123q0 12 -12 12h-270q-20 0 -21 21v51q0 20 21 21h246v2z" />
<glyph unicode="&#xa6;" horiz-adv-x="503" d="M203 -152v689q0 20 20 20h58q20 0 20 -20v-689q0 -20 -20 -20h-58q-20 0 -20 20zM203 815v680q0 20 20 21h58q20 0 20 -21v-680q0 -20 -20 -20h-58q-20 0 -20 20z" />
<glyph unicode="&#xa7;" horiz-adv-x="1085" d="M188 518q0 57 13.5 110.5t41 97.5t69.5 77t100 49v2q-92 45 -135.5 105.5t-43.5 162.5q0 63 24 116.5t64.5 92.5t99 60.5t126.5 21.5q76 0 133 -22.5t95 -61.5t58.5 -88t20.5 -104q0 -20 -14 -23l-66 -14q-20 -6 -20 14q-4 92 -55.5 145.5t-149.5 53.5 q-96 0 -151.5 -49.5t-55.5 -141.5q0 -96 58.5 -151.5t209.5 -87.5q287 -66 287 -365q0 -121 -54.5 -210t-162.5 -124v-2q80 -33 132 -94t52 -174q0 -72 -25.5 -128t-69.5 -95t-103 -59.5t-129 -20.5q-150 0 -236 79t-90 220q0 20 16 22l66 15q18 6 22 -15q0 -59 17.5 -101 t47.5 -68.5t69.5 -39t87.5 -12.5q98 0 159.5 51.5t61.5 155.5q0 98 -64.5 151.5t-218.5 84.5q-152 31 -219.5 124t-67.5 240zM295 518q0 -129 68.5 -196.5t179.5 -67.5q109 0 178.5 67.5t69.5 196.5t-70 195.5t-178 66.5q-111 0 -179.5 -66.5t-68.5 -195.5z" />
<glyph unicode="&#xa8;" horiz-adv-x="862" d="M166 1257v115q0 20 20 21h82q20 0 21 -21v-115q0 -20 -21 -20h-82q-20 0 -20 20zM573 1257v115q0 20 21 21h82q20 0 20 -21v-115q0 -20 -20 -20h-82q-20 0 -21 20z" />
<glyph unicode="&#xa9;" horiz-adv-x="1699" d="M133 696q0 154 54.5 285t150.5 227.5t227 150.5t285 54t285 -54t227 -150.5t150.5 -227.5t54.5 -285t-54.5 -284.5t-150.5 -227t-227 -150.5t-285 -54t-285 54t-227 150.5t-150.5 227.5t-54.5 284zM221 696q0 -135 48 -250.5t132 -199.5t199 -132t250 -48t249.5 48 t198.5 132t132.5 199.5t48.5 250.5t-48.5 251t-132.5 200t-198.5 132t-249.5 48t-250 -48t-199 -132t-132 -200t-48 -251zM547 696q0 78 6 119t16 74q33 104 110 156.5t185 52.5q96 0 164 -41t105 -103q10 -16 -9 -26l-34 -33q-16 -6 -29 6q-33 49 -78 79t-119 30 q-158 0 -207 -148q-10 -29 -14 -62.5t-4 -103.5t4 -103.5t14 -62.5q49 -147 207 -147q74 0 119 29.5t78 79.5q12 12 29 6l34 -33q18 -10 9 -27q-37 -61 -105 -102t-164 -41q-109 0 -185.5 52t-109.5 157q-10 33 -16 73.5t-6 118.5z" />
<glyph unicode="&#xaa;" horiz-adv-x="696" d="M92 967q0 96 64.5 141t181.5 45h141q12 0 13 12v41q0 61 -32 88t-124 27q-53 0 -89 -10.5t-65 -28.5q-16 -14 -28 2l-21 39q-12 18 4 29q33 25 84 40t123 15q133 0 186.5 -44t53.5 -155v-385q0 -20 -21 -20h-49q-20 0 -20 20v41h-5q-23 -35 -70.5 -54t-119.5 -19 q-90 0 -148.5 45t-58.5 131zM184 975q0 -49 37 -76t103 -27q74 0 121 32t47 79v80q0 12 -13 12h-133q-162 0 -162 -100z" />
<glyph unicode="&#xab;" horiz-adv-x="1081" d="M141 526q-14 14 0 29l351 360q6 6 13 4.5t7 -12.5v-92q0 -12 -2 -19.5t-12 -17.5l-228 -229q-8 -8 0 -17l228 -229q14 -14 14 -37v-92q0 -10 -7 -12t-13 4zM555 526q-14 14 0 29l350 360q6 6 13.5 4.5t7.5 -12.5v-92q0 -12 -2 -19.5t-13 -17.5l-227 -229q-8 -8 0 -17 l227 -229q10 -10 12.5 -17t2.5 -20v-92q0 -10 -7.5 -12t-13.5 4z" />
<glyph unicode="&#xac;" d="M135 535v61q0 20 21 20h778q20 0 20 -20v-336q0 -20 -20 -20h-66q-20 0 -20 20v242q0 12 -12 12h-680q-20 0 -21 21z" />
<glyph unicode="&#xae;" horiz-adv-x="940" d="M76 1010q0 84 29.5 155.5t83 124.5t126 83t156.5 30t155.5 -30t125 -83t83 -124.5t29.5 -155.5t-29.5 -157t-83 -126t-125 -83t-155.5 -30t-156.5 30t-126 83t-83 126t-29.5 157zM137 1010q0 -74 24.5 -135.5t69.5 -105.5t106.5 -69.5t133.5 -25.5q70 0 131.5 25.5 t105.5 69.5t69.5 105.5t25.5 135.5q0 72 -25.5 133t-69.5 105t-105.5 69.5t-131.5 25.5q-72 0 -133.5 -25.5t-106.5 -69.5t-69.5 -105.5t-24.5 -132.5zM322 809v405q0 18 18 19h162q66 0 102.5 -35t36.5 -94q0 -45 -21.5 -77t-64.5 -44l86 -172q6 -10 2 -15t-14 -5h-35 q-8 0 -12 5t-9 9l-86 170h-92q-6 0 -6 -4v-162q0 -18 -18 -18h-31q-18 0 -18 18zM389 1040q0 -4 6 -4h105q78 0 78 68q0 70 -78 70h-105q-6 0 -6 -5v-129z" />
<glyph unicode="&#xaf;" horiz-adv-x="862" d="M164 1286v53q0 20 20 21h492q20 0 20 -21v-53q0 -20 -20 -20h-492q-20 0 -20 20z" />
<glyph unicode="&#xb0;" horiz-adv-x="917" d="M166 1114q0 63 22.5 116.5t61.5 92.5t92 61.5t115 22.5q63 0 116.5 -22.5t92.5 -61.5t61.5 -92t22.5 -117q0 -63 -22.5 -116.5t-61.5 -92.5t-92.5 -61.5t-116.5 -22.5q-61 0 -114.5 22.5t-92.5 61.5t-61.5 92.5t-22.5 116.5zM250 1114q0 -92 57.5 -153.5t149.5 -61.5 t150.5 61.5t58.5 153.5q0 45 -15.5 84t-43 68.5t-66.5 46t-84 16.5q-92 0 -149.5 -61.5t-57.5 -153.5z" />
<glyph unicode="&#xb1;" d="M135 20v62q0 20 21 20h778q20 0 20 -20v-62q0 -20 -20 -20h-778q-20 0 -21 20zM135 602v62q0 20 21 20h323q12 0 13 12v328q0 20 20 20h66q20 0 20 -20v-328q0 -12 12 -12h324q20 0 20 -20v-62q0 -20 -20 -20h-324q-12 0 -12 -13v-327q0 -20 -20 -21h-66q-20 0 -20 21 v327q0 12 -13 13h-323q-20 0 -21 20z" />
<glyph unicode="&#xb2;" horiz-adv-x="677" d="M88 901v47q0 12 12 29l320 371q33 37 51 74.5t18 76.5q0 59 -38.5 99t-104.5 40q-61 0 -100 -32.5t-53 -89.5q-4 -20 -25 -17l-47 10q-20 4 -19 25q6 37 25.5 70.5t50.5 61.5t73 44t95 16q115 0 176.5 -66.5t61.5 -160.5q0 -57 -22.5 -105t-67.5 -102l-281 -319v-4h356 q20 0 21 -21v-47q0 -20 -21 -20h-460q-20 0 -21 20z" />
<glyph unicode="&#xb3;" horiz-adv-x="677" d="M84 1036q-6 18 12 25l51 14q16 6 25 -12q18 -43 59 -76t107 -33q74 0 118 44t44 112t-45 113t-121 45h-37q-20 0 -21 20v47q0 20 21 21h31q70 0 111.5 39t41.5 104q0 61 -39 100t-110 39q-66 0 -99.5 -28.5t-50.5 -67.5q-6 -18 -22 -16l-47 12q-20 4 -17 23 q16 66 74.5 115.5t163.5 49.5q113 0 177 -62t64 -161q0 -66 -31.5 -110.5t-74.5 -73.5v-2q20 -8 43 -25.5t41 -43t29.5 -59.5t11.5 -77q0 -109 -69.5 -177.5t-184.5 -68.5q-104 0 -169 48.5t-87 121.5z" />
<glyph unicode="&#xb4;" horiz-adv-x="862" d="M291 1163l158 250q12 20 34 21h78q10 0 13.5 -6.5t-3.5 -14.5l-180 -250q-10 -10 -17 -15t-20 -5h-51q-23 0 -12 20z" />
<glyph unicode="&#xb5;" horiz-adv-x="1114" d="M188 -348v1304q0 20 21 21h70q20 0 20 -21v-598q0 -133 63.5 -202.5t188.5 -69.5q113 0 187.5 71.5t74.5 200.5v598q0 20 21 21h71q20 0 21 -21v-936q0 -20 -21 -20h-71q-20 0 -21 20v117h-2q-33 -72 -104.5 -114.5t-169.5 -42.5q-82 0 -140.5 24.5t-93.5 79.5h-4v-432 q0 -20 -20 -21h-70q-20 0 -21 21z" />
<glyph unicode="&#xb6;" horiz-adv-x="1167" d="M160 969q0 88 28.5 165.5t86 135t141.5 90.5t194 33h355q20 0 20 -21v-1720q0 -20 -20 -21h-64q-20 0 -20 21v1626q0 12 -13 12h-196q-12 0 -13 -12v-1626q0 -20 -20 -21h-64q-20 0 -20 21v893q-92 6 -166 39.5t-124 90t-77.5 131.5t-27.5 163z" />
<glyph unicode="&#xb7;" horiz-adv-x="448" d="M154 475v137q0 20 20 21h100q20 0 21 -21v-137q0 -20 -21 -20h-100q-20 0 -20 20z" />
<glyph unicode="&#xb8;" horiz-adv-x="862" d="M332 -283l110 283q8 20 27 20h53q20 0 15 -20l-95 -283q-8 -20 -32 -20h-64q-20 0 -14 20z" />
<glyph unicode="&#xb9;" horiz-adv-x="677" d="M164 1509v66q0 20 14 29l139 96q18 12 33 12h51q20 0 21 -20v-791q0 -20 -21 -20h-53q-20 0 -20 20v694h-2l-142 -96q-8 -4 -14 -2t-6 12z" />
<glyph unicode="&#xba;" horiz-adv-x="708" d="M90 1098q0 49 5 82.5t16 62.5q55 164 243 164t244 -164q10 -29 15 -62.5t5 -82.5t-5 -83t-15 -63q-56 -164 -244 -164t-243 164q-10 29 -15.5 63t-5.5 83zM188 1098q0 -39 4.5 -65.5t12.5 -49.5q32 -106 149 -106t150 106q8 23 12 49.5t4 65.5t-4 65.5t-12 48.5 q-33 106 -150 107q-117 0 -149 -107q-8 -23 -12.5 -49t-4.5 -65z" />
<glyph unicode="&#xbb;" horiz-adv-x="1081" d="M156 174v92q0 23 14 37l227 229q8 8 0 17l-227 229q-10 10 -12 17.5t-2 19.5v92q0 10 7 12.5t13 -4.5l350 -360q14 -14 0 -29l-350 -360q-6 -6 -13 -4t-7 12zM569 174v92q0 23 15 37l227 229q8 8 0 17l-227 229q-10 10 -12.5 17.5t-2.5 19.5v92q0 10 7.5 12.5t13.5 -4.5 l350 -360q14 -14 0 -29l-350 -360q-6 -6 -13.5 -4t-7.5 12z" />
<glyph unicode="&#xbc;" horiz-adv-x="1695" d="M201 1190v65q0 20 14 29l139 96q18 12 33 13h51q20 0 21 -21v-790q0 -20 -21 -21h-53q-20 0 -20 21v694h-3l-141 -96q-8 -4 -14 -2t-6 12zM367 0l807 1393q12 20 28 20h55q23 0 13 -20l-807 -1393q-12 -20 -29 -20h-55q-23 0 -12 20zM936 176v45q0 16 8 33l273 557 q8 20 26 20h60q10 0 13 -6t-1 -14l-273 -565v-2h244q12 0 12 12v201q0 20 21 20h51q20 0 21 -20v-201q0 -12 12 -12h74q20 0 20 -21v-47q0 -20 -20 -20h-74q-12 0 -12 -13v-123q0 -20 -21 -20h-51q-20 0 -21 20v123q0 12 -12 13h-330q-20 0 -20 20z" />
<glyph unicode="&#xbd;" horiz-adv-x="1759" d="M201 1190v65q0 20 14 29l139 96q18 12 33 13h51q20 0 21 -21v-790q0 -20 -21 -21h-53q-20 0 -20 21v694h-3l-141 -96q-8 -4 -14 -2t-6 12zM367 0l807 1393q12 20 28 20h55q23 0 13 -20l-807 -1393q-12 -20 -29 -20h-55q-23 0 -12 20zM1057 20v48q0 12 12 28l320 371 q33 37 51 75t18 76q0 59 -39 99.5t-104 40.5q-61 0 -100 -33t-54 -90q-4 -20 -24 -17l-47 11q-20 4 -19 24q6 37 25.5 71t50.5 61.5t73 44t95 16.5q115 0 176 -66.5t61 -161.5q0 -57 -22.5 -105t-67.5 -101l-280 -320v-4h356q20 0 21 -20v-48q0 -20 -21 -20h-461 q-20 0 -20 20z" />
<glyph unicode="&#xbe;" horiz-adv-x="1837" d="M201 717q-6 18 12 24l51 15q16 6 25 -13q18 -43 59 -75.5t107 -32.5q74 0 117.5 44t43.5 112t-45 112.5t-120 44.5h-37q-20 0 -21 21v47q0 20 21 20h30q70 0 112 39t42 105q0 61 -39 100t-110 39q-66 0 -100 -28.5t-50 -67.5q-6 -18 -23 -17l-47 13q-20 4 -16 22 q16 66 74.5 116t163.5 50q113 0 177 -62.5t64 -160.5q0 -66 -31.5 -111t-74.5 -74v-2q20 -8 42.5 -25.5t41 -43t30 -59t11.5 -76.5q0 -109 -69.5 -177.5t-184.5 -68.5q-104 0 -169 48t-87 122zM508 0l807 1393q12 20 28 20h56q23 0 12 -20l-807 -1393q-12 -20 -29 -20h-55 q-23 0 -12 20zM1075 176v45q0 16 8 33l273 557q8 20 26 20h60q10 0 13 -6t-1 -14l-272 -565v-2h243q12 0 13 12v201q0 20 20 20h51q20 0 21 -20v-201q0 -12 12 -12h74q20 0 20 -21v-47q0 -20 -20 -20h-74q-12 0 -12 -13v-123q0 -20 -21 -20h-51q-20 0 -20 20v123 q0 12 -13 13h-329q-20 0 -21 20z" />
<glyph unicode="&#xbf;" horiz-adv-x="913" d="M102 -98q0 84 29 148.5t96 146.5l113 151q20 25 33.5 45.5t20.5 41t9.5 43t2.5 50.5v72q0 20 20 21h72q20 0 20 -21v-80q0 -63 -13 -107t-52 -94l-113 -149q-39 -47 -63.5 -83t-38 -66.5t-18.5 -58.5t-5 -60q0 -111 68.5 -171.5t173.5 -60.5q102 0 166.5 59.5t87.5 170.5 q4 20 22 16l70 -12q20 -4 16 -25q-23 -139 -117 -227t-247 -88q-80 0 -144.5 25.5t-110.5 69.5t-72 106.5t-26 136.5zM391 819v137q0 20 21 21h102q20 0 21 -21v-137q0 -20 -21 -20h-102q-20 0 -21 20z" />
<glyph unicode="&#xc0;" horiz-adv-x="1220" d="M63 20l488 1352q6 20 24 21h74q18 0 25 -21l483 -1352q6 -20 -14 -20h-80q-23 0 -27 20l-123 342h-606l-123 -342q-8 -20 -26 -20h-80q-20 0 -15 20zM346 475h528l-260 729h-6zM346 1812.5q2 6.5 12 6.5h82q23 0 37 -21l168 -213q8 -10 5 -15t-13 -5h-53q-12 0 -19.5 3 t-17.5 15l-197 215q-6 8 -4 14.5z" />
<glyph unicode="&#xc1;" horiz-adv-x="1220" d="M63 20l488 1352q6 20 24 21h74q18 0 25 -21l483 -1352q6 -20 -14 -20h-80q-23 0 -27 20l-123 342h-606l-123 -342q-8 -20 -26 -20h-80q-20 0 -15 20zM346 475h528l-260 729h-6zM576.5 1570q-3.5 5 5.5 15l168 213q14 20 36 21h82q10 0 12.5 -6.5t-3.5 -14.5l-197 -215 q-10 -12 -17.5 -15t-19.5 -3h-53q-10 0 -13.5 5z" />
<glyph unicode="&#xc2;" horiz-adv-x="1220" d="M63 20l488 1352q6 20 24 21h74q18 0 25 -21l483 -1352q6 -20 -14 -20h-80q-23 0 -27 20l-123 342h-606l-123 -342q-8 -20 -26 -20h-80q-20 0 -15 20zM346 475h528l-260 729h-6zM364.5 1550q-2.5 6 4.5 15l184 252q12 18 33 18h47q18 0 31 -18l186 -252q6 -8 4 -14.5 t-12 -6.5h-51q-20 0 -35 21l-146 174h-4l-143 -174q-18 -20 -35 -21h-51q-10 0 -12.5 6z" />
<glyph unicode="&#xc3;" horiz-adv-x="1220" d="M63 20l488 1352q6 20 24 21h74q18 0 25 -21l483 -1352q6 -20 -14 -20h-80q-23 0 -27 20l-123 342h-606l-123 -342q-8 -20 -26 -20h-80q-20 0 -15 20zM346 475h528l-260 729h-6zM356 1620v61q0 14 17 31q25 29 55.5 45.5t69.5 16.5q37 0 66.5 -12.5t56.5 -28.5 q25 -16 48 -26.5t52 -10.5q35 0 63.5 18.5t57.5 48.5q6 6 11 4t5 -10v-61q0 -10 -2 -16.5t-12 -16.5q-27 -27 -57.5 -44t-69.5 -17q-37 0 -65.5 13t-57.5 30q-25 16 -48.5 26t-51.5 10q-35 0 -63 -19.5t-56 -47.5q-18 -14 -19 6z" />
<glyph unicode="&#xc4;" horiz-adv-x="1220" d="M63 20l488 1352q6 20 24 21h74q18 0 25 -21l483 -1352q6 -20 -14 -20h-80q-23 0 -27 20l-123 342h-606l-123 -342q-8 -20 -26 -20h-80q-20 0 -15 20zM344 1630v115q0 20 21 20h79q20 0 21 -20v-115q0 -20 -21 -20h-79q-20 0 -21 20zM346 475h528l-260 729h-6zM754 1630 v115q0 20 20 20h80q20 0 20 -20v-115q0 -20 -20 -20h-80q-20 0 -20 20z" />
<glyph unicode="&#xc5;" horiz-adv-x="1220" d="M63 20l488 1352q6 20 24 21h74q18 0 25 -21l483 -1352q6 -20 -14 -20h-80q-23 0 -27 20l-123 342h-606l-123 -342q-8 -20 -26 -20h-80q-20 0 -15 20zM346 475h528l-260 729h-6zM428 1692q0 78 51 129t129 51t129 -51t51 -129t-51 -129.5t-129 -51.5t-129 51.5t-51 129.5z M500 1692q0 -49 29.5 -82t78.5 -33t79 33t30 82t-30 81.5t-79 32.5t-78.5 -32.5t-29.5 -81.5z" />
<glyph unicode="&#xc6;" horiz-adv-x="1927" d="M64.5 6q-3.5 6 1.5 14l833 1354q12 18 31 19h868q20 0 21 -21v-69q0 -20 -21 -21h-688q-12 0 -12 -12v-496q0 -12 12 -12h592q20 0 20 -21v-69q0 -20 -20 -21h-592q-12 0 -12 -12v-516q0 -12 12 -12h688q20 0 21 -21v-70q0 -20 -21 -20h-797q-20 0 -20 20v330 q0 12 -12 12h-559l-213 -342q-10 -20 -29 -20h-90q-10 0 -13.5 6zM479 475h490q12 0 12 12v793h-4z" />
<glyph unicode="&#xc7;" horiz-adv-x="1138" d="M133 696q0 92 3 157t7 112t11.5 78.5t15.5 58.5q53 158 163.5 234.5t276.5 76.5q143 0 252 -64.5t168 -193.5q8 -18 -6 -27l-68 -32q-16 -10 -26 8q-47 90 -124 144.5t-196 54.5q-129 0 -207.5 -58.5t-119.5 -173.5q-6 -20 -12.5 -49t-10.5 -72t-6 -104.5t-2 -149.5 t2 -149.5t6 -104.5t10 -71.5t13 -48.5q41 -115 119.5 -173.5t207.5 -58.5q119 0 196 54.5t124 144.5q10 18 26 8l68 -33q14 -8 6 -26q-53 -117 -148.5 -180.5t-224.5 -75.5l-88 -265q-8 -20 -32 -20h-64q-20 0 -14 20l102 265q-141 10 -241.5 85.5t-149.5 223.5 q-8 27 -15.5 58.5t-11.5 78.5t-7 111.5t-3 156.5z" />
<glyph unicode="&#xc8;" horiz-adv-x="1138" d="M193 20v1352q0 20 20 21h797q20 0 20 -21v-69q0 -20 -20 -21h-688q-12 0 -13 -12v-496q0 -12 13 -12h591q20 0 21 -21v-69q0 -20 -21 -21h-591q-12 0 -13 -12v-516q0 -12 13 -12h688q20 0 20 -21v-70q0 -20 -20 -20h-797q-20 0 -20 20zM381 1812.5q2 6.5 12 6.5h82 q23 0 37 -21l168 -213q8 -10 5 -15t-13 -5h-54q-12 0 -19 3t-17 15l-197 215q-6 8 -4 14.5z" />
<glyph unicode="&#xc9;" horiz-adv-x="1138" d="M193 20v1352q0 20 20 21h797q20 0 20 -21v-69q0 -20 -20 -21h-688q-12 0 -13 -12v-496q0 -12 13 -12h591q20 0 21 -21v-69q0 -20 -21 -21h-591q-12 0 -13 -12v-516q0 -12 13 -12h688q20 0 20 -21v-70q0 -20 -20 -20h-797q-20 0 -20 20zM513 1570q-3 5 5 15l168 213 q14 20 37 21h82q10 0 12 -6.5t-4 -14.5l-197 -215q-10 -12 -17 -15t-19 -3h-54q-10 0 -13 5z" />
<glyph unicode="&#xca;" horiz-adv-x="1138" d="M193 20v1352q0 20 20 21h797q20 0 20 -21v-69q0 -20 -20 -21h-688q-12 0 -13 -12v-496q0 -12 13 -12h591q20 0 21 -21v-69q0 -20 -21 -21h-591q-12 0 -13 -12v-516q0 -12 13 -12h688q20 0 20 -21v-70q0 -20 -20 -20h-797q-20 0 -20 20zM367 1550q-2 6 4 15l184 252 q12 18 33 18h47q18 0 31 -18l186 -252q6 -8 4 -14.5t-12 -6.5h-51q-20 0 -35 21l-146 174h-4l-143 -174q-18 -20 -35 -21h-51q-10 0 -12 6z" />
<glyph unicode="&#xcb;" horiz-adv-x="1138" d="M193 20v1352q0 20 20 21h797q20 0 20 -21v-69q0 -20 -20 -21h-688q-12 0 -13 -12v-496q0 -12 13 -12h591q20 0 21 -21v-69q0 -20 -21 -21h-591q-12 0 -13 -12v-516q0 -12 13 -12h688q20 0 20 -21v-70q0 -20 -20 -20h-797q-20 0 -20 20zM336 1630v115q0 20 20 20h80 q20 0 21 -20v-115q0 -20 -21 -20h-80q-20 0 -20 20zM745 1630v115q0 20 21 20h80q20 0 20 -20v-115q0 -20 -20 -20h-80q-20 0 -21 20z" />
<glyph unicode="&#xcc;" horiz-adv-x="501" d="M-4 1812.5q2 6.5 12 6.5h82q23 0 37 -21l168 -213q8 -10 5 -15t-13 -5h-54q-12 0 -19 3t-17 15l-197 215q-6 8 -4 14.5zM193 20v1352q0 20 20 21h76q20 0 20 -21v-1352q0 -20 -20 -20h-76q-20 0 -20 20z" />
<glyph unicode="&#xcd;" horiz-adv-x="501" d="M193 20v1352q0 20 20 21h76q20 0 20 -21v-1352q0 -20 -20 -20h-76q-20 0 -20 20zM216 1570q-3 5 5 15l168 213q14 20 37 21h82q10 0 12 -6.5t-4 -14.5l-197 -215q-10 -12 -17 -15t-19 -3h-54q-10 0 -13 5z" />
<glyph unicode="&#xce;" horiz-adv-x="501" d="M8 1550q-2 6 4 15l185 252q12 18 32 18h47q18 0 31 -18l187 -252q6 -8 4 -14.5t-13 -6.5h-51q-20 0 -35 21l-145 174h-4l-144 -174q-18 -20 -34 -21h-52q-10 0 -12 6zM193 20v1352q0 20 20 21h76q20 0 20 -21v-1352q0 -20 -20 -20h-76q-20 0 -20 20z" />
<glyph unicode="&#xcf;" horiz-adv-x="501" d="M-12 1630v115q0 20 20 20h80q20 0 21 -20v-115q0 -20 -21 -20h-80q-20 0 -20 20zM193 20v1352q0 20 20 21h76q20 0 20 -21v-1352q0 -20 -20 -20h-76q-20 0 -20 20zM397 1630v115q0 20 21 20h80q20 0 20 -20v-115q0 -20 -20 -20h-80q-20 0 -21 20z" />
<glyph unicode="&#xd0;" horiz-adv-x="1269" d="M78 676v61q0 20 20 21h82q12 0 13 12v602q0 20 20 21h436q352 0 445 -283q10 -31 17 -63.5t12 -78.5t7.5 -111.5t2.5 -160.5q0 -96 -2.5 -160.5t-7.5 -110.5t-12 -79t-17 -63q-92 -283 -445 -283h-436q-20 0 -20 20v623q0 12 -13 12h-82q-20 0 -20 21zM309 123 q0 -12 13 -12h311q135 0 223 50t125 161q8 25 14 53t10.5 70t6.5 102.5t2 148.5t-2 148.5t-6.5 102.5t-10.5 71t-14 53q-37 111 -125 161t-223 50h-311q-12 0 -13 -12v-500q0 -12 13 -12h266q20 0 20 -21v-61q0 -20 -20 -21h-266q-12 0 -13 -12v-520z" />
<glyph unicode="&#xd1;" horiz-adv-x="1333" d="M193 20v1352q0 20 20 21h76q25 0 35 -21l694 -1145h6v1145q0 20 20 21h76q20 0 21 -21v-1352q0 -20 -21 -20h-80q-23 0 -34 20l-689 1147h-8v-1147q0 -20 -20 -20h-76q-20 0 -20 20zM414 1620v61q0 14 16 31q25 29 55.5 45.5t69.5 16.5q37 0 66.5 -12.5t56.5 -28.5 q25 -16 48.5 -26.5t51.5 -10.5q35 0 63.5 18.5t57.5 48.5q6 6 11 4t5 -10v-61q0 -10 -2 -16.5t-12 -16.5q-27 -27 -57.5 -44t-69.5 -17q-37 0 -65.5 13t-57.5 30q-25 16 -48 26t-52 10q-35 0 -62.5 -19.5t-56.5 -47.5q-18 -14 -18 6z" />
<glyph unicode="&#xd2;" horiz-adv-x="1247" d="M133 696q0 90 3 153.5t8.5 110t12.5 79t17 61.5q51 154 165 233.5t286 79.5q170 0 283.5 -80t164.5 -233q8 -29 16.5 -61.5t13.5 -79t8 -110t3 -153.5t-3 -153.5t-8 -109.5t-13.5 -80t-16.5 -60q-51 -154 -164.5 -233.5t-283.5 -79.5q-172 0 -286 79.5t-165 233.5 q-10 27 -17 60.5t-12.5 79.5t-8.5 109.5t-3 153.5zM252 696q0 -84 3 -145.5t7 -104.5t11.5 -71.5t13.5 -48.5q78 -236 338 -236q258 0 336 236q6 20 13 48.5t11 71.5t7 104.5t3 145.5t-3 145.5t-7 104.5t-11 72t-13 49q-78 236 -336 236q-260 0 -338 -236q-6 -20 -13.5 -49 t-11.5 -72t-7 -104.5t-3 -145.5zM393 1812.5q2 6.5 13 6.5h81q23 0 37 -21l168 -213q8 -10 5 -15t-13 -5h-53q-12 0 -19.5 3t-17.5 15l-197 215q-6 8 -4 14.5z" />
<glyph unicode="&#xd3;" horiz-adv-x="1247" d="M133 696q0 90 3 153.5t8.5 110t12.5 79t17 61.5q51 154 165 233.5t286 79.5q170 0 283.5 -80t164.5 -233q8 -29 16.5 -61.5t13.5 -79t8 -110t3 -153.5t-3 -153.5t-8 -109.5t-13.5 -80t-16.5 -60q-51 -154 -164.5 -233.5t-283.5 -79.5q-172 0 -286 79.5t-165 233.5 q-10 27 -17 60.5t-12.5 79.5t-8.5 109.5t-3 153.5zM252 696q0 -84 3 -145.5t7 -104.5t11.5 -71.5t13.5 -48.5q78 -236 338 -236q258 0 336 236q6 20 13 48.5t11 71.5t7 104.5t3 145.5t-3 145.5t-7 104.5t-11 72t-13 49q-78 236 -336 236q-260 0 -338 -236q-6 -20 -13.5 -49 t-11.5 -72t-7 -104.5t-3 -145.5zM548 1570q-3 5 5 15l168 213q14 20 37 21h82q10 0 12 -6.5t-4 -14.5l-197 -215q-10 -12 -17 -15t-20 -3h-53q-10 0 -13 5z" />
<glyph unicode="&#xd4;" horiz-adv-x="1247" d="M133 696q0 90 3 153.5t8.5 110t12.5 79t17 61.5q51 154 165 233.5t286 79.5q170 0 283.5 -80t164.5 -233q8 -29 16.5 -61.5t13.5 -79t8 -110t3 -153.5t-3 -153.5t-8 -109.5t-13.5 -80t-16.5 -60q-51 -154 -164.5 -233.5t-283.5 -79.5q-172 0 -286 79.5t-165 233.5 q-10 27 -17 60.5t-12.5 79.5t-8.5 109.5t-3 153.5zM252 696q0 -84 3 -145.5t7 -104.5t11.5 -71.5t13.5 -48.5q78 -236 338 -236q258 0 336 236q6 20 13 48.5t11 71.5t7 104.5t3 145.5t-3 145.5t-7 104.5t-11 72t-13 49q-78 236 -336 236q-260 0 -338 -236q-6 -20 -13.5 -49 t-11.5 -72t-7 -104.5t-3 -145.5zM379 1550q-2 6 4 15l184 252q12 18 33 18h47q18 0 31 -18l186 -252q6 -8 4 -14.5t-12 -6.5h-51q-20 0 -35 21l-145 174h-4l-144 -174q-18 -20 -35 -21h-51q-10 0 -12 6z" />
<glyph unicode="&#xd5;" horiz-adv-x="1247" d="M133 696q0 90 3 153.5t8.5 110t12.5 79t17 61.5q51 154 165 233.5t286 79.5q170 0 283.5 -80t164.5 -233q8 -29 16.5 -61.5t13.5 -79t8 -110t3 -153.5t-3 -153.5t-8 -109.5t-13.5 -80t-16.5 -60q-51 -154 -164.5 -233.5t-283.5 -79.5q-172 0 -286 79.5t-165 233.5 q-10 27 -17 60.5t-12.5 79.5t-8.5 109.5t-3 153.5zM252 696q0 -84 3 -145.5t7 -104.5t11.5 -71.5t13.5 -48.5q78 -236 338 -236q258 0 336 236q6 20 13 48.5t11 71.5t7 104.5t3 145.5t-3 145.5t-7 104.5t-11 72t-13 49q-78 236 -336 236q-260 0 -338 -236q-6 -20 -13.5 -49 t-11.5 -72t-7 -104.5t-3 -145.5zM373 1620v61q0 14 16 31q25 29 55.5 45.5t69.5 16.5q37 0 66.5 -12.5t56.5 -28.5q25 -16 48.5 -26.5t51.5 -10.5q35 0 63.5 18.5t57.5 48.5q6 6 11 4t5 -10v-61q0 -10 -2 -16.5t-12 -16.5q-27 -27 -57.5 -44t-69.5 -17q-37 0 -65.5 13 t-57.5 30q-25 16 -48 26t-52 10q-35 0 -62.5 -19.5t-56.5 -47.5q-18 -14 -18 6z" />
<glyph unicode="&#xd6;" horiz-adv-x="1247" d="M133 696q0 90 3 153.5t8.5 110t12.5 79t17 61.5q51 154 165 233.5t286 79.5q170 0 283.5 -80t164.5 -233q8 -29 16.5 -61.5t13.5 -79t8 -110t3 -153.5t-3 -153.5t-8 -109.5t-13.5 -80t-16.5 -60q-51 -154 -164.5 -233.5t-283.5 -79.5q-172 0 -286 79.5t-165 233.5 q-10 27 -17 60.5t-12.5 79.5t-8.5 109.5t-3 153.5zM252 696q0 -84 3 -145.5t7 -104.5t11.5 -71.5t13.5 -48.5q78 -236 338 -236q258 0 336 236q6 20 13 48.5t11 71.5t7 104.5t3 145.5t-3 145.5t-7 104.5t-11 72t-13 49q-78 236 -336 236q-260 0 -338 -236q-6 -20 -13.5 -49 t-11.5 -72t-7 -104.5t-3 -145.5zM358 1630v115q0 20 21 20h80q20 0 20 -20v-115q0 -20 -20 -20h-80q-20 0 -21 20zM768 1630v115q0 20 20 20h80q20 0 21 -20v-115q0 -20 -21 -20h-80q-20 0 -20 20z" />
<glyph unicode="&#xd7;" d="M207 268q-14 14 0 29l260 260q8 8 0 16l-260 261q-14 14 0 28l41 45q14 14 28 0l263 -260q8 -8 16 0l260 260q14 14 29 0l41 -45q14 -14 0 -28l-260 -261q-8 -8 0 -16l260 -260q14 -14 0 -29l-41 -45q-14 -14 -29 0l-260 260q-8 8 -16 0l-263 -260q-14 -14 -28 0z" />
<glyph unicode="&#xd8;" horiz-adv-x="1247" d="M133 696q0 90 3 153.5t8.5 110t12.5 79t17 61.5q51 154 165 233.5t286 79.5q186 0 307 -98l67 119q10 20 31 20h49q23 0 13 -20l-103 -179q53 -66 84 -155q8 -29 16.5 -61.5t13.5 -79t8 -110t3 -153.5t-3 -153.5t-8 -109.5t-13.5 -80t-16.5 -60q-51 -154 -164.5 -233.5 t-283.5 -79.5q-188 0 -310 98l-67 -119q-10 -20 -31 -20h-49q-23 0 -12 20l100 176q-51 68 -82 158q-10 27 -17 60.5t-12.5 79.5t-8.5 109.5t-3 153.5zM252 696q0 -84 3 -145.5t7 -104.5t11.5 -71.5t13.5 -48.5q12 -41 35 -78l550 964q-94 90 -247 91q-260 0 -338 -236 q-6 -20 -13.5 -49t-11.5 -72t-7 -104.5t-3 -145.5zM375 178q90 -88 250 -88q258 0 336 236q6 20 13 48.5t11 71.5t7 104.5t3 145.5t-3 145.5t-7 104.5t-11 72t-13 49q-8 20 -16.5 39.5t-18.5 36.5z" />
<glyph unicode="&#xd9;" horiz-adv-x="1300" d="M178 481v891q0 20 21 21h75q20 0 21 -21v-893q0 -199 94 -294t260 -95q168 0 262.5 95.5t94.5 293.5v893q0 20 20 21h76q20 0 20 -21v-891q0 -127 -33.5 -221t-95 -156.5t-148.5 -93t-196 -30.5q-215 0 -343 122.5t-128 378.5zM418 1812.5q2 6.5 12 6.5h82q23 0 37 -21 l168 -213q8 -10 5 -15t-13 -5h-54q-12 0 -19 3t-18 15l-196 215q-6 8 -4 14.5z" />
<glyph unicode="&#xda;" horiz-adv-x="1300" d="M178 481v891q0 20 21 21h75q20 0 21 -21v-893q0 -199 94 -294t260 -95q168 0 262.5 95.5t94.5 293.5v893q0 20 20 21h76q20 0 20 -21v-891q0 -127 -33.5 -221t-95 -156.5t-148.5 -93t-196 -30.5q-215 0 -343 122.5t-128 378.5zM572.5 1570q-3.5 5 5.5 15l167 213 q14 20 37 21h82q10 0 12.5 -6.5t-4.5 -14.5l-196 -215q-10 -12 -17.5 -15t-19.5 -3h-53q-10 0 -13.5 5z" />
<glyph unicode="&#xdb;" horiz-adv-x="1300" d="M178 481v891q0 20 21 21h75q20 0 21 -21v-893q0 -199 94 -294t260 -95q168 0 262.5 95.5t94.5 293.5v893q0 20 20 21h76q20 0 20 -21v-891q0 -127 -33.5 -221t-95 -156.5t-148.5 -93t-196 -30.5q-215 0 -343 122.5t-128 378.5zM405.5 1550q-2.5 6 4.5 15l184 252 q12 18 33 18h47q18 0 31 -18l186 -252q6 -8 4 -14.5t-12 -6.5h-52q-20 0 -34 21l-146 174h-4l-143 -174q-18 -20 -35 -21h-51q-10 0 -12.5 6z" />
<glyph unicode="&#xdc;" horiz-adv-x="1300" d="M178 481v891q0 20 21 21h75q20 0 21 -21v-893q0 -199 94 -294t260 -95q168 0 262.5 95.5t94.5 293.5v893q0 20 20 21h76q20 0 20 -21v-891q0 -127 -33.5 -221t-95 -156.5t-148.5 -93t-196 -30.5q-215 0 -343 122.5t-128 378.5zM385 1630v115q0 20 21 20h79q20 0 21 -20 v-115q0 -20 -21 -20h-79q-20 0 -21 20zM795 1630v115q0 20 20 20h80q20 0 20 -20v-115q0 -20 -20 -20h-80q-20 0 -20 20z" />
<glyph unicode="&#xdd;" horiz-adv-x="1054" d="M51 1370q-4 8 1 15.5t16 7.5h79q20 0 31 -21l350 -665h7l344 665q10 20 30 21h78q12 0 16.5 -7.5t0.5 -15.5l-418 -799v-551q0 -20 -21 -20h-76q-20 0 -20 20v551zM468 1570q-3 5 5 15l168 213q14 20 37 21h82q10 0 12 -6.5t-4 -14.5l-197 -215q-10 -12 -17 -15t-19 -3 h-54q-10 0 -13 5z" />
<glyph unicode="&#xde;" horiz-adv-x="1198" d="M193 20v1352q0 20 20 21h76q20 0 20 -21v-256q0 -12 13 -12h356q201 0 314.5 -104.5t113.5 -288.5t-113.5 -290t-314.5 -106h-356q-12 0 -13 -12v-283q0 -20 -20 -20h-76q-20 0 -20 20zM309 438q0 -12 13 -12h352q154 0 234.5 74.5t80.5 210.5q0 135 -81 208.5t-234 73.5 h-352q-12 0 -13 -12v-543z" />
<glyph unicode="&#xdf;" horiz-adv-x="1103" d="M188 20v996q0 96 21.5 170t68 125t120 76.5t180.5 25.5q184 0 275 -80t91 -221q0 -94 -38 -151.5t-107 -86.5v-4q49 -18 86 -55t57 -96q6 -18 10 -40t7.5 -51.5t4.5 -71.5t1 -103t-2 -105.5t-5.5 -75t-7.5 -52t-8 -38.5q-35 -106 -120 -149t-214 -43h-30q-20 0 -21 20v66 q0 20 21 20h28q94 0 149.5 30t80.5 101q4 12 8 28.5t6 42.5t3 62.5t1 92.5q0 109 -5 155.5t-15 75.5q-23 74 -81.5 102.5t-150.5 30.5h-24q-20 0 -21 21v65q0 20 21 21h30q117 0 171.5 45t54.5 143q0 94 -64.5 145.5t-189.5 51.5q-154 0 -217.5 -67.5t-63.5 -225.5v-996 q0 -20 -20 -20h-70q-20 0 -21 20z" />
<glyph unicode="&#xe0;" horiz-adv-x="1050" d="M135 268q0 147 95.5 218t275.5 71h248q12 0 12 12v101q0 59 -11.5 102t-41 70.5t-78.5 40t-123 12.5q-90 0 -146.5 -19.5t-99.5 -54.5q-18 -14 -30 2l-35 51q-10 16 6 29q53 45 130 69.5t181 24.5q94 0 162 -16t111 -55t63 -100.5t20 -151.5v-654q0 -20 -20 -20h-66 q-20 0 -20 20v103h-2q-29 -61 -105.5 -102t-197.5 -41q-147 0 -237.5 72.5t-90.5 215.5zM244 270q0 -92 62 -140t179 -48q127 0 204 59.5t77 159.5v150q0 12 -12 12h-234q-147 0 -211.5 -47t-64.5 -146zM357 1427.5q3 6.5 14 6.5h78q20 0 32 -21l158 -250q6 -10 3 -15 t-13 -5h-51q-12 0 -19.5 5t-17.5 15l-181 250q-6 8 -3 14.5z" />
<glyph unicode="&#xe1;" horiz-adv-x="1050" d="M135 268q0 147 95.5 218t275.5 71h248q12 0 12 12v101q0 59 -11.5 102t-41 70.5t-78.5 40t-123 12.5q-90 0 -146.5 -19.5t-99.5 -54.5q-18 -14 -30 2l-35 51q-10 16 6 29q53 45 130 69.5t181 24.5q94 0 162 -16t111 -55t63 -100.5t20 -151.5v-654q0 -20 -20 -20h-66 q-20 0 -20 20v103h-2q-29 -61 -105.5 -102t-197.5 -41q-147 0 -237.5 72.5t-90.5 215.5zM244 270q0 -92 62 -140t179 -48q127 0 204 59.5t77 159.5v150q0 12 -12 12h-234q-147 0 -211.5 -47t-64.5 -146zM471 1163l158 250q12 20 35 21h77q10 0 13.5 -6.5t-2.5 -14.5 l-181 -250q-10 -10 -17 -15t-19 -5h-52q-23 0 -12 20z" />
<glyph unicode="&#xe2;" horiz-adv-x="1050" d="M135 268q0 147 95.5 218t275.5 71h248q12 0 12 12v101q0 59 -11.5 102t-41 70.5t-78.5 40t-123 12.5q-90 0 -146.5 -19.5t-99.5 -54.5q-18 -14 -30 2l-35 51q-10 16 6 29q53 45 130 69.5t181 24.5q94 0 162 -16t111 -55t63 -100.5t20 -151.5v-654q0 -20 -20 -20h-66 q-20 0 -20 20v103h-2q-29 -61 -105.5 -102t-197.5 -41q-147 0 -237.5 72.5t-90.5 215.5zM244 270q0 -92 62 -140t179 -48q127 0 204 59.5t77 159.5v150q0 12 -12 12h-234q-147 0 -211.5 -47t-64.5 -146zM281 1149q-2 6 4 14l184 252q12 18 33 19h47q18 0 31 -19l186 -252 q6 -8 4 -14t-12 -6h-51q-20 0 -35 20l-146 174h-4l-143 -174q-18 -20 -35 -20h-51q-10 0 -12 6z" />
<glyph unicode="&#xe3;" horiz-adv-x="1050" d="M135 268q0 147 95.5 218t275.5 71h248q12 0 12 12v101q0 59 -11.5 102t-41 70.5t-78.5 40t-123 12.5q-90 0 -146.5 -19.5t-99.5 -54.5q-18 -14 -30 2l-35 51q-10 16 6 29q53 45 130 69.5t181 24.5q94 0 162 -16t111 -55t63 -100.5t20 -151.5v-654q0 -20 -20 -20h-66 q-20 0 -20 20v103h-2q-29 -61 -105.5 -102t-197.5 -41q-147 0 -237.5 72.5t-90.5 215.5zM244 270q0 -92 62 -140t179 -48q127 0 204 59.5t77 159.5v150q0 12 -12 12h-234q-147 0 -211.5 -47t-64.5 -146zM272 1239v61q0 14 17 31q25 29 55.5 45.5t69.5 16.5q37 0 66.5 -12.5 t56.5 -28.5q25 -16 48 -26.5t52 -10.5q35 0 63.5 18.5t57.5 48.5q6 6 11 4t5 -10v-61q0 -10 -2 -16.5t-12 -16.5q-27 -27 -57.5 -44t-69.5 -17q-37 0 -65.5 13t-57.5 30q-25 16 -48.5 26t-51.5 10q-35 0 -63 -19t-56 -48q-18 -14 -19 6z" />
<glyph unicode="&#xe4;" horiz-adv-x="1050" d="M135 268q0 147 95.5 218t275.5 71h248q12 0 12 12v101q0 59 -11.5 102t-41 70.5t-78.5 40t-123 12.5q-90 0 -146.5 -19.5t-99.5 -54.5q-18 -14 -30 2l-35 51q-10 16 6 29q53 45 130 69.5t181 24.5q94 0 162 -16t111 -55t63 -100.5t20 -151.5v-654q0 -20 -20 -20h-66 q-20 0 -20 20v103h-2q-29 -61 -105.5 -102t-197.5 -41q-147 0 -237.5 72.5t-90.5 215.5zM244 270q0 -92 62 -140t179 -48q127 0 204 59.5t77 159.5v150q0 12 -12 12h-234q-147 0 -211.5 -47t-64.5 -146zM258 1257v115q0 20 21 21h81q20 0 21 -21v-115q0 -20 -21 -20h-81 q-20 0 -21 20zM666 1257v115q0 20 20 21h82q20 0 20 -21v-115q0 -20 -20 -20h-82q-20 0 -20 20z" />
<glyph unicode="&#xe5;" horiz-adv-x="1050" d="M135 268q0 147 95.5 218t275.5 71h248q12 0 12 12v101q0 59 -11.5 102t-41 70.5t-78.5 40t-123 12.5q-90 0 -146.5 -19.5t-99.5 -54.5q-18 -14 -30 2l-35 51q-10 16 6 29q53 45 130 69.5t181 24.5q94 0 162 -16t111 -55t63 -100.5t20 -151.5v-654q0 -20 -20 -20h-66 q-20 0 -20 20v103h-2q-29 -61 -105.5 -102t-197.5 -41q-147 0 -237.5 72.5t-90.5 215.5zM244 270q0 -92 62 -140t179 -48q127 0 204 59.5t77 159.5v150q0 12 -12 12h-234q-147 0 -211.5 -47t-64.5 -146zM348 1288q0 78 51.5 129t128.5 51q78 0 129.5 -51t51.5 -129 t-51.5 -129t-129.5 -51t-129 51t-51 129zM420 1288q0 -49 29.5 -81.5t78.5 -32.5t79 32.5t30 81.5t-29.5 82t-79.5 33q-49 0 -78.5 -33t-29.5 -82z" />
<glyph unicode="&#xe6;" horiz-adv-x="1667" d="M135 268q0 147 95.5 218t275.5 71h248q12 0 12 12v101q0 59 -11.5 102t-41 70.5t-78.5 40t-123 12.5q-90 0 -146.5 -19.5t-99.5 -54.5q-18 -14 -30 2l-35 51q-10 16 6 29q53 45 130 69.5t181 24.5q133 0 213 -36.5t109 -126.5h4q96 164 309 163q133 0 228.5 -65.5 t136.5 -188.5q16 -47 22 -102t6 -158q0 -20 -22 -20h-637q-12 0 -13 -14q0 -61 5.5 -99.5t15.5 -73.5q35 -98 105.5 -144t170.5 -46q96 0 163 36t110 89q12 16 29 4l47 -43q14 -12 2 -29q-53 -72 -143.5 -117.5t-213.5 -45.5q-133 0 -216 53t-126 137h-2q-39 -92 -127 -141 t-231 -49q-147 0 -237.5 72.5t-90.5 215.5zM244 270q0 -92 62 -140t179 -48q127 0 204 59.5t77 159.5v150q0 12 -12 12h-234q-147 0 -211.5 -47t-64.5 -146zM874 569q0 -12 13 -12h534q12 0 13 12q0 45 -4.5 79t-14.5 63q-29 92 -96.5 138t-165.5 46q-96 0 -163.5 -46 t-96.5 -138q-10 -29 -14.5 -63t-4.5 -79z" />
<glyph unicode="&#xe7;" horiz-adv-x="962" d="M123 487q0 88 8 148.5t23 107.5q39 121 134 187.5t230 66.5q117 0 197 -47t133 -137q10 -16 -6 -27l-58 -36q-16 -10 -26 8q-43 68 -98.5 100.5t-141.5 32.5q-96 0 -161.5 -46t-94.5 -138q-14 -41 -20 -92.5t-6 -127.5t6 -126t20 -91q29 -92 94.5 -138t161.5 -46 q86 0 141.5 33t98.5 100q10 18 26 8l58 -37q16 -10 6 -26q-49 -80 -117.5 -126t-165.5 -56l-88 -265q-8 -20 -33 -20h-63q-20 0 -14 20l102 267q-117 10 -199 74.5t-116 174.5q-14 47 -22.5 106.5t-8.5 147.5z" />
<glyph unicode="&#xe8;" horiz-adv-x="1028" d="M123 489q0 92 7 150.5t22 103.5q41 123 135 188.5t227 65.5t228.5 -65.5t136.5 -188.5q16 -47 22 -102t6 -158q0 -20 -22 -20h-637q-12 0 -12 -14q0 -61 5 -99.5t15 -73.5q35 -98 105.5 -144t170.5 -46q96 0 163 36t110 89q12 16 29 4l47 -43q14 -12 2 -29 q-53 -72 -143.5 -117.5t-213.5 -45.5q-143 0 -238 65.5t-136 192.5q-14 45 -21.5 101t-7.5 150zM236 569q0 -12 12 -12h534q12 0 13 12q0 45 -4.5 79t-14.5 63q-29 92 -96.5 138t-165.5 46q-96 0 -163.5 -46t-96.5 -138q-10 -29 -14 -63t-4 -79zM302 1427.5q3 6.5 13 6.5h78 q20 0 33 -21l158 -250q6 -10 3 -15t-14 -5h-51q-12 0 -19 5t-18 15l-180 250q-6 8 -3 14.5z" />
<glyph unicode="&#xe9;" horiz-adv-x="1028" d="M123 489q0 92 7 150.5t22 103.5q41 123 135 188.5t227 65.5t228.5 -65.5t136.5 -188.5q16 -47 22 -102t6 -158q0 -20 -22 -20h-637q-12 0 -12 -14q0 -61 5 -99.5t15 -73.5q35 -98 105.5 -144t170.5 -46q96 0 163 36t110 89q12 16 29 4l47 -43q14 -12 2 -29 q-53 -72 -143.5 -117.5t-213.5 -45.5q-143 0 -238 65.5t-136 192.5q-14 45 -21.5 101t-7.5 150zM236 569q0 -12 12 -12h534q12 0 13 12q0 45 -4.5 79t-14.5 63q-29 92 -96.5 138t-165.5 46q-96 0 -163.5 -46t-96.5 -138q-10 -29 -14 -63t-4 -79zM449 1163l157 250 q12 20 35 21h78q10 0 13 -6.5t-3 -14.5l-180 -250q-10 -10 -17.5 -15t-19.5 -5h-51q-23 0 -12 20z" />
<glyph unicode="&#xea;" horiz-adv-x="1028" d="M123 489q0 92 7 150.5t22 103.5q41 123 135 188.5t227 65.5t228.5 -65.5t136.5 -188.5q16 -47 22 -102t6 -158q0 -20 -22 -20h-637q-12 0 -12 -14q0 -61 5 -99.5t15 -73.5q35 -98 105.5 -144t170.5 -46q96 0 163 36t110 89q12 16 29 4l47 -43q14 -12 2 -29 q-53 -72 -143.5 -117.5t-213.5 -45.5q-143 0 -238 65.5t-136 192.5q-14 45 -21.5 101t-7.5 150zM236 569q0 -12 12 -12h534q12 0 13 12q0 45 -4.5 79t-14.5 63q-29 92 -96.5 138t-165.5 46q-96 0 -163.5 -46t-96.5 -138q-10 -29 -14 -63t-4 -79zM268.5 1149q-2.5 6 3.5 14 l185 252q12 18 32 19h48q18 0 30 -19l187 -252q6 -8 4 -14t-13 -6h-51q-20 0 -35 20l-145 174h-4l-143 -174q-18 -20 -35 -20h-51q-10 0 -12.5 6z" />
<glyph unicode="&#xeb;" horiz-adv-x="1028" d="M123 489q0 92 7 150.5t22 103.5q41 123 135 188.5t227 65.5t228.5 -65.5t136.5 -188.5q16 -47 22 -102t6 -158q0 -20 -22 -20h-637q-12 0 -12 -14q0 -61 5 -99.5t15 -73.5q35 -98 105.5 -144t170.5 -46q96 0 163 36t110 89q12 16 29 4l47 -43q14 -12 2 -29 q-53 -72 -143.5 -117.5t-213.5 -45.5q-143 0 -238 65.5t-136 192.5q-14 45 -21.5 101t-7.5 150zM236 569q0 -12 12 -12h534q12 0 13 12q0 45 -4.5 79t-14.5 63q-29 92 -96.5 138t-165.5 46q-96 0 -163.5 -46t-96.5 -138q-10 -29 -14 -63t-4 -79zM248 1257v115q0 20 20 21h82 q20 0 21 -21v-115q0 -20 -21 -20h-82q-20 0 -20 20zM655 1257v115q0 20 21 21h82q20 0 20 -21v-115q0 -20 -20 -20h-82q-20 0 -21 20z" />
<glyph unicode="&#xec;" horiz-adv-x="487" d="M1 1427.5q3 6.5 13 6.5h78q20 0 33 -21l158 -250q6 -10 3 -15t-14 -5h-51q-12 0 -19 5t-18 15l-180 250q-6 8 -3 14.5zM188 20v936q0 20 21 21h70q20 0 20 -21v-936q0 -20 -20 -20h-70q-20 0 -21 20z" />
<glyph unicode="&#xed;" horiz-adv-x="487" d="M188 20v936q0 20 21 21h70q20 0 20 -21v-936q0 -20 -20 -20h-70q-20 0 -21 20zM207 1163l158 250q12 20 34 21h78q10 0 13.5 -6.5t-3.5 -14.5l-180 -250q-10 -10 -17 -15t-20 -5h-51q-23 0 -12 20z" />
<glyph unicode="&#xee;" horiz-adv-x="487" d="M0 1149q-2 6 4 14l184 252q12 18 33 19h47q18 0 31 -19l186 -252q6 -8 4 -14t-12 -6h-51q-20 0 -35 20l-145 174h-4l-144 -174q-18 -20 -35 -20h-51q-10 0 -12 6zM188 20v936q0 20 21 21h70q20 0 20 -21v-936q0 -20 -20 -20h-70q-20 0 -21 20z" />
<glyph unicode="&#xef;" horiz-adv-x="487" d="M-20 1257v115q0 20 20 21h82q20 0 20 -21v-115q0 -20 -20 -20h-82q-20 0 -20 20zM188 20v936q0 20 21 21h70q20 0 20 -21v-936q0 -20 -20 -20h-70q-20 0 -21 20zM387 1257v115q0 20 21 21h81q20 0 21 -21v-115q0 -20 -21 -20h-81q-20 0 -21 20z" />
<glyph unicode="&#xf0;" horiz-adv-x="1042" d="M123 477q0 82 8 140.5t25 105.5q39 119 128 184.5t212 65.5q51 0 92 -12.5t88 -42.5h2l-184 229l-197 -60q-25 -6 -29 15l-14 51q-2 18 16 25l160 47l-117 147q-6 8 -3 14.5t14 6.5h86q12 0 19 -5.5t15 -15.5l93 -115l192 58q23 6 27 -12l14 -50q4 -20 -14 -26l-156 -47 l80 -97q63 -80 109.5 -150.5t75 -140t42 -140t13.5 -152.5q0 -100 -8.5 -159.5t-22.5 -107.5q-41 -123 -136.5 -188t-230.5 -65q-137 0 -231 65.5t-135 187.5q-16 47 -24.5 105.5t-8.5 138.5zM236 477q0 -72 6 -121t20 -90q29 -88 96.5 -134t163.5 -46q94 0 162 46t96 134 q14 41 20.5 90.5t6.5 120.5q0 72 -6 119t-21 88q-29 88 -95.5 137t-162.5 49t-163.5 -47t-96.5 -135q-14 -41 -20 -90t-6 -121z" />
<glyph unicode="&#xf1;" horiz-adv-x="1107" d="M188 20v936q0 20 21 21h70q20 0 20 -21v-116h2q37 72 110.5 114.5t178.5 42.5q164 0 253 -96t89 -276v-605q0 -20 -21 -20h-69q-20 0 -21 20v578q0 293 -256 293q-113 0 -189.5 -71.5t-76.5 -201.5v-598q0 -20 -20 -20h-70q-20 0 -21 20zM301 1239v61q0 14 16 31 q25 29 55.5 45.5t69.5 16.5q37 0 67 -12.5t56 -28.5q25 -16 48.5 -26.5t52.5 -10.5q35 0 63.5 18.5t56.5 48.5q6 6 11.5 4t5.5 -10v-61q0 -10 -2 -16.5t-13 -16.5q-27 -27 -57 -44t-69 -17q-37 0 -66 13t-57 30q-25 16 -48.5 26t-52.5 10q-35 0 -62.5 -19t-56.5 -48 q-18 -14 -18 6z" />
<glyph unicode="&#xf2;" horiz-adv-x="1042" d="M123 489q0 88 8 146.5t25 107.5q41 123 135 188.5t229 65.5t230.5 -65.5t136.5 -188.5q16 -49 24.5 -107t8.5 -147q0 -90 -8.5 -148t-24.5 -108q-41 -123 -136.5 -188t-230.5 -65t-229 65.5t-135 187.5q-16 49 -24.5 107.5t-8.5 148.5zM236 489q0 -80 6 -130t20 -91 q29 -88 96.5 -135t161.5 -47q96 0 164 47t96 135q14 41 20.5 91.5t6.5 129.5q0 78 -6 128.5t-21 91.5q-29 88 -96.5 135t-163.5 47q-94 0 -161.5 -47t-96.5 -135q-14 -41 -20 -91.5t-6 -128.5zM302 1427.5q3 6.5 13 6.5h78q20 0 33 -21l158 -250q6 -10 3 -15t-14 -5h-51 q-12 0 -19 5t-18 15l-180 250q-6 8 -3 14.5z" />
<glyph unicode="&#xf3;" horiz-adv-x="1042" d="M123 489q0 88 8 146.5t25 107.5q41 123 135 188.5t229 65.5t230.5 -65.5t136.5 -188.5q16 -49 24.5 -107t8.5 -147q0 -90 -8.5 -148t-24.5 -108q-41 -123 -136.5 -188t-230.5 -65t-229 65.5t-135 187.5q-16 49 -24.5 107.5t-8.5 148.5zM236 489q0 -80 6 -130t20 -91 q29 -88 96.5 -135t161.5 -47q96 0 164 47t96 135q14 41 20.5 91.5t6.5 129.5q0 78 -6 128.5t-21 91.5q-29 88 -96.5 135t-163.5 47q-94 0 -161.5 -47t-96.5 -135q-14 -41 -20 -91.5t-6 -128.5zM455 1163l157 250q12 20 35 21h78q10 0 13 -6.5t-3 -14.5l-180 -250 q-10 -10 -17.5 -15t-19.5 -5h-51q-23 0 -12 20z" />
<glyph unicode="&#xf4;" horiz-adv-x="1042" d="M123 489q0 88 8 146.5t25 107.5q41 123 135 188.5t229 65.5t230.5 -65.5t136.5 -188.5q16 -49 24.5 -107t8.5 -147q0 -90 -8.5 -148t-24.5 -108q-41 -123 -136.5 -188t-230.5 -65t-229 65.5t-135 187.5q-16 49 -24.5 107.5t-8.5 148.5zM236 489q0 -80 6 -130t20 -91 q29 -88 96.5 -135t161.5 -47q96 0 164 47t96 135q14 41 20.5 91.5t6.5 129.5q0 78 -6 128.5t-21 91.5q-29 88 -96.5 135t-163.5 47q-94 0 -161.5 -47t-96.5 -135q-14 -41 -20 -91.5t-6 -128.5zM274.5 1149q-2.5 6 4.5 14l184 252q12 18 33 19h47q18 0 30 -19l187 -252 q6 -8 4 -14t-12 -6h-52q-20 0 -34 20l-146 174h-4l-143 -174q-18 -20 -35 -20h-51q-10 0 -12.5 6z" />
<glyph unicode="&#xf5;" horiz-adv-x="1042" d="M123 489q0 88 8 146.5t25 107.5q41 123 135 188.5t229 65.5t230.5 -65.5t136.5 -188.5q16 -49 24.5 -107t8.5 -147q0 -90 -8.5 -148t-24.5 -108q-41 -123 -136.5 -188t-230.5 -65t-229 65.5t-135 187.5q-16 49 -24.5 107.5t-8.5 148.5zM236 489q0 -80 6 -130t20 -91 q29 -88 96.5 -135t161.5 -47q96 0 164 47t96 135q14 41 20.5 91.5t6.5 129.5q0 78 -6 128.5t-21 91.5q-29 88 -96.5 135t-163.5 47q-94 0 -161.5 -47t-96.5 -135q-14 -41 -20 -91.5t-6 -128.5zM268 1239v61q0 14 17 31q25 29 55.5 45.5t69.5 16.5q37 0 66.5 -12.5 t55.5 -28.5q25 -16 48.5 -26.5t52.5 -10.5q35 0 63.5 18.5t57.5 48.5q6 6 11 4t5 -10v-61q0 -10 -2 -16.5t-12 -16.5q-27 -27 -57.5 -44t-69.5 -17q-37 0 -65.5 13t-57.5 30q-25 16 -48.5 26t-51.5 10q-35 0 -63 -19t-56 -48q-18 -14 -19 6z" />
<glyph unicode="&#xf6;" horiz-adv-x="1042" d="M123 489q0 88 8 146.5t25 107.5q41 123 135 188.5t229 65.5t230.5 -65.5t136.5 -188.5q16 -49 24.5 -107t8.5 -147q0 -90 -8.5 -148t-24.5 -108q-41 -123 -136.5 -188t-230.5 -65t-229 65.5t-135 187.5q-16 49 -24.5 107.5t-8.5 148.5zM236 489q0 -80 6 -130t20 -91 q29 -88 96.5 -135t161.5 -47q96 0 164 47t96 135q14 41 20.5 91.5t6.5 129.5q0 78 -6 128.5t-21 91.5q-29 88 -96.5 135t-163.5 47q-94 0 -161.5 -47t-96.5 -135q-14 -41 -20 -91.5t-6 -128.5zM254 1257v115q0 20 20 21h82q20 0 21 -21v-115q0 -20 -21 -20h-82q-20 0 -20 20 zM662 1257v115q0 20 20 21h82q20 0 20 -21v-115q0 -20 -20 -20h-82q-20 0 -20 20z" />
<glyph unicode="&#xf7;" d="M135 535v61q0 20 21 20h778q20 0 20 -20v-61q0 -20 -20 -21h-778q-20 0 -21 21zM457 264q0 37 25.5 62.5t62.5 25.5t62.5 -25.5t25.5 -62.5t-25.5 -62.5t-62.5 -25.5t-62.5 25.5t-25.5 62.5zM457 866q0 37 25.5 62.5t62.5 25.5t62.5 -25.5t25.5 -62.5t-25.5 -62.5 t-62.5 -25.5t-62.5 25.5t-25.5 62.5z" />
<glyph unicode="&#xf8;" horiz-adv-x="1042" d="M123 489q0 88 8 146.5t25 107.5q41 123 135 188.5t229 65.5q145 0 248 -79l68 100q14 20 34 20h35q10 0 12.5 -6t-2.5 -14l-98 -150q43 -49 70 -125q16 -49 24.5 -107t8.5 -147q0 -90 -8.5 -148t-24.5 -108q-41 -123 -136.5 -188t-230.5 -65q-147 0 -246 79l-67 -100 q-14 -20 -35 -20h-35q-10 0 -12 6t2 14l96 147q-45 57 -67 127q-16 49 -24.5 107.5t-8.5 148.5zM236 489q0 -80 6 -130t20 -91q12 -35 29 -63l416 620q-72 66 -187 66q-94 0 -161.5 -47t-96.5 -135q-14 -41 -20 -91.5t-6 -128.5zM336 152q71 -66 184 -66q96 0 164 47t96 135 q14 41 20.5 91.5t6.5 129.5q0 78 -6 128.5t-21 91.5q-6 16 -12 31.5t-16 31.5z" />
<glyph unicode="&#xf9;" horiz-adv-x="1095" d="M172 350v606q0 20 21 21h69q20 0 21 -21v-577q0 -293 252 -293q55 0 103 18.5t83 54.5t55.5 86t20.5 113v598q0 20 20 21h70q20 0 20 -21v-936q0 -20 -20 -20h-70q-20 0 -20 20v115h-2q-37 -72 -111 -113.5t-174 -41.5q-164 0 -251 96t-87 274zM335 1427.5q3 6.5 13 6.5 h78q20 0 33 -21l157 -250q6 -10 3 -15t-13 -5h-51q-12 0 -19.5 5t-17.5 15l-180 250q-6 8 -3 14.5z" />
<glyph unicode="&#xfa;" horiz-adv-x="1095" d="M172 350v606q0 20 21 21h69q20 0 21 -21v-577q0 -293 252 -293q55 0 103 18.5t83 54.5t55.5 86t20.5 113v598q0 20 20 21h70q20 0 20 -21v-936q0 -20 -20 -20h-70q-20 0 -20 20v115h-2q-37 -72 -111 -113.5t-174 -41.5q-164 0 -251 96t-87 274zM477 1163l158 250 q12 20 35 21h78q10 0 13 -6.5t-3 -14.5l-180 -250q-10 -10 -17.5 -15t-19.5 -5h-52q-23 0 -12 20z" />
<glyph unicode="&#xfb;" horiz-adv-x="1095" d="M172 350v606q0 20 21 21h69q20 0 21 -21v-577q0 -293 252 -293q55 0 103 18.5t83 54.5t55.5 86t20.5 113v598q0 20 20 21h70q20 0 20 -21v-936q0 -20 -20 -20h-70q-20 0 -20 20v115h-2q-37 -72 -111 -113.5t-174 -41.5q-164 0 -251 96t-87 274zM301 1149q-2 6 4 14 l184 252q12 18 33 19h47q18 0 31 -19l186 -252q6 -8 4 -14t-12 -6h-51q-20 0 -35 20l-145 174h-4l-144 -174q-18 -20 -34 -20h-52q-10 0 -12 6z" />
<glyph unicode="&#xfc;" horiz-adv-x="1095" d="M172 350v606q0 20 21 21h69q20 0 21 -21v-577q0 -293 252 -293q55 0 103 18.5t83 54.5t55.5 86t20.5 113v598q0 20 20 21h70q20 0 20 -21v-936q0 -20 -20 -20h-70q-20 0 -20 20v115h-2q-37 -72 -111 -113.5t-174 -41.5q-164 0 -251 96t-87 274zM281 1257v115q0 20 20 21 h82q20 0 20 -21v-115q0 -20 -20 -20h-82q-20 0 -20 20zM688 1257v115q0 20 21 21h82q20 0 20 -21v-115q0 -20 -20 -20h-82q-20 0 -21 20z" />
<glyph unicode="&#xfd;" horiz-adv-x="956" d="M68 956q-6 20 14 21h78q18 0 26 -21l297 -784h2l289 784q6 20 25 21h78q20 0 14 -21l-399 -1050q-31 -84 -62 -137.5t-63.5 -84t-70.5 -42t-85 -11.5h-43q-20 0 -21 21v65q0 20 21 21h37q31 0 56.5 8t47 27.5t41 55.5t39.5 91l39 100zM418 1163l157 250q12 20 35 21h78 q10 0 13.5 -6.5t-3.5 -14.5l-180 -250q-10 -10 -17 -15t-20 -5h-51q-23 0 -12 20z" />
<glyph unicode="&#xfe;" horiz-adv-x="1087" d="M188 -348v1720q0 20 21 21h70q20 0 20 -21v-534h2q35 70 104.5 114.5t192.5 44.5q254 0 332 -233q18 -59 26.5 -126t8.5 -151q0 -82 -8.5 -148.5t-26.5 -125.5q-78 -233 -332 -233q-123 0 -192.5 45t-104.5 114h-2v-487q0 -20 -20 -21h-70q-20 0 -21 21zM299 487 q0 -80 6 -134t21 -95q29 -86 93 -129t156 -43q98 0 160 44t90 128q16 47 21.5 105.5t5.5 123.5q0 66 -5 125.5t-22 106.5q-29 84 -90 128t-160 44q-92 0 -156.5 -43t-92.5 -129q-14 -41 -20.5 -96.5t-6.5 -135.5z" />
<glyph unicode="&#xff;" horiz-adv-x="956" d="M68 956q-6 20 14 21h78q18 0 26 -21l297 -784h2l289 784q6 20 25 21h78q20 0 14 -21l-399 -1050q-31 -84 -62 -137.5t-63.5 -84t-70.5 -42t-85 -11.5h-43q-20 0 -21 21v65q0 20 21 21h37q31 0 56.5 8t47 27.5t41 55.5t39.5 91l39 100zM215 1257v115q0 20 21 21h81 q20 0 21 -21v-115q0 -20 -21 -20h-81q-20 0 -21 20zM623 1257v115q0 20 20 21h82q20 0 20 -21v-115q0 -20 -20 -20h-82q-20 0 -20 20z" />
<glyph unicode="&#x152;" horiz-adv-x="1943" d="M135 696q0 90 3 153.5t8.5 110t12.5 79t17 61.5q51 154 165 233.5t286 79.5q125 0 220 -48t148 -153h2v160q0 20 21 21h797q20 0 20 -21v-69q0 -20 -20 -21h-689q-12 0 -12 -12v-496q0 -12 12 -12h592q20 0 21 -21v-69q0 -20 -21 -21h-592q-12 0 -12 -12v-516 q0 -12 12 -12h689q20 0 20 -21v-70q0 -20 -20 -20h-797q-20 0 -21 20v160h-2q-53 -104 -148 -152t-220 -48q-172 0 -286 79.5t-165 233.5q-10 27 -17 60.5t-12.5 79.5t-8.5 109.5t-3 153.5zM254 696q0 -84 3 -145.5t7 -104.5t11.5 -71.5t13.5 -48.5q78 -236 338 -236 q258 0 336 236q6 20 13 48.5t11 71.5t7 104.5t3 145.5t-3 145.5t-7 104.5t-11 72t-13 49q-78 236 -336 236q-260 0 -338 -236q-6 -20 -13.5 -49t-11.5 -72t-7 -104.5t-3 -145.5z" />
<glyph unicode="&#x153;" horiz-adv-x="1712" d="M123 487q0 90 8 148.5t25 107.5q39 121 134 187.5t230 66.5q119 0 207 -52t133 -152h2q47 102 133 153t203 51q133 0 227.5 -65.5t135.5 -188.5q14 -47 21 -102t7 -158q0 -20 -22 -20h-637q-12 0 -12 -14q2 -61 7 -99.5t15 -73.5q33 -98 103.5 -144t170.5 -46 q98 0 166 36t109 89q16 16 31 4l43 -43q14 -12 2 -29q-53 -72 -143.5 -117.5t-213.5 -45.5t-210 50t-134 154h-4q-45 -102 -132 -153t-208 -51q-135 0 -230 65.5t-134 187.5q-16 49 -24.5 107.5t-8.5 146.5zM236 489q0 -80 6 -130t20 -91q29 -88 96.5 -135t161.5 -47 q96 0 164 47t96 135q14 41 20.5 91.5t6.5 129.5q0 78 -6 128.5t-21 91.5q-29 88 -96.5 135t-163.5 47q-94 0 -161.5 -47t-96.5 -135q-14 -41 -20 -91.5t-6 -128.5zM918 569q0 -12 12 -12h534q12 0 13 12q0 45 -4.5 79t-14.5 63q-31 92 -97.5 138t-162.5 46t-163.5 -46 t-96.5 -138q-10 -29 -15 -63t-5 -79z" />
<glyph unicode="&#x178;" horiz-adv-x="1054" d="M51 1370q-4 8 1 15.5t16 7.5h79q20 0 31 -21l350 -665h7l344 665q10 20 30 21h78q12 0 16.5 -7.5t0.5 -15.5l-418 -799v-551q0 -20 -21 -20h-76q-20 0 -20 20v551zM262 1630v115q0 20 21 20h79q20 0 21 -20v-115q0 -20 -21 -20h-79q-20 0 -21 20zM672 1630v115 q0 20 20 20h80q20 0 21 -20v-115q0 -20 -21 -20h-80q-20 0 -20 20z" />
<glyph unicode="&#x2c6;" horiz-adv-x="862" d="M186.5 1149q-2.5 6 3.5 14l185 252q12 18 33 19h47q18 0 30 -19l187 -252q6 -8 4 -14t-12 -6h-52q-20 0 -34 20l-146 174h-4l-143 -174q-18 -20 -35 -20h-51q-10 0 -12.5 6z" />
<glyph unicode="&#x2dc;" horiz-adv-x="862" d="M178 1239v61q0 14 17 31q25 29 55.5 45.5t68.5 16.5q37 0 67 -12.5t56 -28.5q25 -16 48.5 -26.5t52.5 -10.5q35 0 63.5 18.5t57.5 48.5q6 6 11 4t5 -10v-61q0 -10 -2 -16.5t-12 -16.5q-27 -27 -57.5 -44t-69.5 -17q-37 0 -66 13t-57 30q-25 16 -48.5 26t-52.5 10 q-35 0 -62.5 -19t-55.5 -48q-18 -14 -19 6z" />
<glyph unicode="&#x2000;" horiz-adv-x="936" />
<glyph unicode="&#x2001;" horiz-adv-x="1872" />
<glyph unicode="&#x2002;" horiz-adv-x="936" />
<glyph unicode="&#x2003;" horiz-adv-x="1872" />
<glyph unicode="&#x2004;" horiz-adv-x="624" />
<glyph unicode="&#x2005;" horiz-adv-x="468" />
<glyph unicode="&#x2006;" horiz-adv-x="312" />
<glyph unicode="&#x2007;" horiz-adv-x="312" />
<glyph unicode="&#x2008;" horiz-adv-x="234" />
<glyph unicode="&#x2009;" horiz-adv-x="374" />
<glyph unicode="&#x200a;" horiz-adv-x="104" />
<glyph unicode="&#x2010;" horiz-adv-x="765" d="M100 514v64q0 20 21 20h524q20 0 21 -20v-64q0 -20 -21 -20h-524q-20 0 -21 20z" />
<glyph unicode="&#x2011;" horiz-adv-x="765" d="M100 514v64q0 20 21 20h524q20 0 21 -20v-64q0 -20 -21 -20h-524q-20 0 -21 20z" />
<glyph unicode="&#x2012;" horiz-adv-x="765" d="M100 514v64q0 20 21 20h524q20 0 21 -20v-64q0 -20 -21 -20h-524q-20 0 -21 20z" />
<glyph unicode="&#x2013;" horiz-adv-x="1032" d="M55 516v59q0 20 21 21h880q20 0 21 -21v-59q0 -20 -21 -20h-880q-20 0 -21 20z" />
<glyph unicode="&#x2014;" horiz-adv-x="1699" d="M55 516v59q0 20 21 21h1548q20 0 21 -21v-59q0 -20 -21 -20h-1548q-20 0 -21 20z" />
<glyph unicode="&#x2018;" horiz-adv-x="423" d="M152 1087v142q0 29 10 45l69 106q11 15 23 15q18 0 18 -21v-287q0 -20 -20 -20h-80q-20 0 -20 20z" />
<glyph unicode="&#x2019;" horiz-adv-x="423" d="M152 1085v287q0 20 20 21h80q20 0 20 -21v-141q0 -31 -10 -45l-69 -107q-11 -14 -23 -14q-18 0 -18 20z" />
<glyph unicode="&#x201a;" horiz-adv-x="423" d="M152 137q0 20 20 21h80q20 0 20 -21v-141q0 -31 -10 -45l-69 -107q-11 -14 -23 -14q-18 0 -18 20v287z" />
<glyph unicode="&#x201c;" horiz-adv-x="708" d="M152 1087v142q0 29 10 45l69 106q11 15 23 15q18 0 18 -21v-287q0 -20 -20 -20h-80q-20 0 -20 20zM436 1087v142q0 29 10 45l70 106q11 15 23 15q18 0 18 -21v-287q0 -20 -20 -20h-80q-20 0 -21 20z" />
<glyph unicode="&#x201d;" horiz-adv-x="708" d="M152 1085v287q0 20 20 21h80q20 0 20 -21v-141q0 -31 -10 -45l-69 -107q-11 -14 -23 -14q-18 0 -18 20zM436 1085v287q0 20 21 21h80q20 0 20 -21v-141q0 -31 -10 -45l-70 -107q-10 -14 -22 -14q-18 0 -19 20z" />
<glyph unicode="&#x201e;" horiz-adv-x="708" d="M152 -94v287q0 20 20 20h80q20 0 20 -20v-142q0 -31 -10 -45l-69 -106q-11 -15 -23 -15q-18 0 -18 21zM436 -94v287q0 20 21 20h80q20 0 20 -20v-142q0 -31 -10 -45l-70 -106q-10 -15 -22 -15q-18 0 -19 21z" />
<glyph unicode="&#x2022;" horiz-adv-x="866" d="M199 631q0 51 17 95t49 76t75 49t92 17q102 0 169 -66.5t67 -170.5t-67 -171t-169 -67q-49 0 -92 17.5t-75 49.5t-49 76t-17 95z" />
<glyph unicode="&#x2026;" horiz-adv-x="1345" d="M154 20v138q0 20 20 20h100q20 0 21 -20v-138q0 -20 -21 -20h-100q-20 0 -20 20zM602 20v138q0 20 21 20h100q20 0 20 -20v-138q0 -20 -20 -20h-100q-20 0 -21 20zM1051 20v138q0 20 20 20h100q20 0 21 -20v-138q0 -20 -21 -20h-100q-20 0 -20 20z" />
<glyph unicode="&#x202f;" horiz-adv-x="374" />
<glyph unicode="&#x2039;" horiz-adv-x="667" d="M141 526q-14 14 0 29l351 360q6 6 13 4.5t7 -12.5v-92q0 -12 -2 -19.5t-12 -17.5l-228 -229q-8 -8 0 -17l228 -229q14 -14 14 -37v-92q0 -10 -7 -12t-13 4z" />
<glyph unicode="&#x203a;" horiz-adv-x="667" d="M156 174v92q0 23 14 37l227 229q8 8 0 17l-227 229q-10 10 -12 17.5t-2 19.5v92q0 10 7 12.5t13 -4.5l350 -360q14 -14 0 -29l-350 -360q-6 -6 -13 -4t-7 12z" />
<glyph unicode="&#x205f;" horiz-adv-x="468" />
<glyph unicode="&#x20ac;" d="M94 551v51q0 20 21 21h96q12 0 12 12v135q0 12 -12 12h-96q-20 0 -21 21v51q0 20 21 20h96q12 0 12 13q0 51 2 91t5 70.5t8.5 56t11.5 48.5q41 125 134 192.5t234 67.5q72 0 130.5 -19.5t102.5 -52t75.5 -75.5t52.5 -90q10 -18 -10 -27l-56 -31q-16 -6 -26 12 q-41 78 -103.5 127.5t-165.5 49.5q-199 0 -258 -181q-14 -37 -19 -89t-5 -150q0 -12 12 -13h436q10 0 15.5 -6t1.5 -16l-17 -49q-6 -20 -24 -21h-412q-12 0 -12 -12v-135q0 -12 12 -12h375q10 0 15 -6.5t1 -16.5l-16 -49q-6 -20 -25 -21h-350q-12 0 -12 -12q0 -59 1 -98 t4 -67.5t8 -48t11 -38.5q59 -180 258 -180q102 0 165 49t104 127q10 18 26 12l56 -30q20 -8 10 -27q-20 -47 -52 -90t-76 -76t-102.5 -52t-130.5 -19q-141 0 -234 67.5t-134 192.5q-6 23 -11.5 46t-8.5 55t-5 74t-2 103q0 12 -12 12h-96q-20 0 -21 21z" />
<glyph unicode="&#x2122;" horiz-adv-x="1673" d="M84 1329v43q0 20 20 21h566q20 0 20 -21v-43q0 -20 -20 -20h-226q-12 0 -12 -13v-690q0 -20 -20 -20h-50q-20 0 -20 20v690q0 12 -12 13h-226q-20 0 -20 20zM842 606v766q0 20 20 21h47q16 0 27 -19l268 -561h6l265 561q8 18 24 19h49q20 0 21 -21v-766q0 -20 -21 -20 h-45q-20 0 -20 20v580h-4l-230 -469q-8 -16 -24 -17h-39q-16 0 -25 17l-229 469h-4v-580q0 -20 -21 -20h-45q-20 0 -20 20z" />
<glyph unicode="&#x25fc;" horiz-adv-x="972" d="M0 0v973h973v-973h-973z" />
<glyph unicode="&#xfb01;" horiz-adv-x="1118" d="M84 899v57q0 20 20 21h105q12 0 12 12v105q0 88 14.5 145t47 91t85 48.5t126.5 14.5h57q20 0 20 -21v-65q0 -20 -20 -21h-43q-55 0 -90 -7t-54.5 -26.5t-25.5 -54.5t-6 -90v-119q0 -12 12 -12h207q20 0 20 -21v-57q0 -20 -20 -20h-207q-12 0 -12 -13v-846q0 -20 -21 -20 h-69q-20 0 -21 20v846q0 12 -12 13h-105q-20 0 -20 20zM809 1257v115q0 20 20 21h91q20 0 20 -21v-115q0 -20 -20 -20h-91q-20 0 -20 20zM819 20v936q0 20 21 21h69q20 0 21 -21v-936q0 -20 -21 -20h-69q-20 0 -21 20z" />
<glyph unicode="&#xfb02;" horiz-adv-x="1167" d="M84 899v57q0 20 20 21h105q12 0 12 12v105q0 88 14.5 145t47 91t85 48.5t126.5 14.5h57q20 0 20 -21v-65q0 -20 -20 -21h-43q-55 0 -90 -7t-54.5 -26.5t-25.5 -54.5t-6 -90v-119q0 -12 12 -12h207q20 0 20 -21v-57q0 -20 -20 -20h-207q-12 0 -12 -13v-846q0 -20 -21 -20 h-69q-20 0 -21 20v846q0 12 -12 13h-105q-20 0 -20 20zM817 223v1149q0 20 21 21h69q20 0 21 -21v-1145q0 -72 24.5 -99.5t79.5 -27.5h35q20 0 20 -20v-66q0 -20 -20 -20h-47q-111 0 -157 53t-46 176z" />
</font>
</defs>
</svg>
