<?xml version="1.0" encoding="utf-8"?>
<!-- Generator: Adobe Illustrator 19.0.0, SVG Export Plug-In . SVG Version: 6.00 Build 0)  -->
<svg version="1.1" xmlns="http://www.w3.org/2000/svg" xmlns:xlink="http://www.w3.org/1999/xlink" x="0px" y="0px"
	 viewBox="0 0 1756 1132" style="enable-background:new 0 0 1756 1132;" xml:space="preserve">
<style type="text/css">
	.st0{fill:#36495E;}
	.st1{fill:#37B396;stroke:#37B396;stroke-width:16;stroke-miterlimit:10;}
	.st2{fill:#37B396;}
</style>
<g id="Layer_1">
	<g>
		<path class="st0" d="M415.5,830c0-4,0.8-7.4,2.4-10.4c1.6-3,3.9-5.5,6.9-7.5c3-2.1,6.5-3.8,10.6-5.1c4.1-1.3,8.7-2.4,13.6-3.2
			c5-0.8,10.3-1.3,15.9-1.6c5.7-0.3,11.5-0.4,17.6-0.4c8.2,0,16.8,0.3,25.8,1c9,0.7,18.4,1.9,28.2,3.6c2.3,0.5,3.9,1.3,4.8,2.6
			c0.9,1.2,1.4,2.6,1.4,4.1c0,0.9-0.2,1.9-0.6,2.8c-0.4,0.9-1,1.7-1.7,2.5c-0.7,0.8-1.5,1.4-2.5,1.8c-0.9,0.4-1.9,0.7-3,0.7
			c-3.6,0-7.4-0.2-11.4-0.6c-3.9-0.4-8.1-0.8-12.3-1.3c-4.3-0.5-8.7-0.9-13.2-1.4c-4.5-0.5-9.2-0.8-14-1.1c-0.9,5.3-1.9,11-3.3,17.1
			c-1.3,6.1-2.8,12.3-4.4,18.7c-1.6,6.4-3.2,12.7-5,19c-1.7,6.3-3.4,12.3-5,18.1c-1.6,5.7-3.1,11-4.5,15.9c-1.4,4.9-2.5,9-3.4,12.5
			c-0.4,1.6-1,3.1-1.7,4.4c-0.8,1.3-1.7,2.5-2.6,3.5c-1,1-2,1.8-3,2.3c-1,0.5-2,0.8-2.9,0.8c-2.7,0-4.9-0.6-6.7-1.9
			c-1.7-1.3-2.6-3.3-2.6-6.2c0-0.9,0.1-1.9,0.4-3c0.6-4.3,1.4-8.5,2.4-12.7c1-4.2,2.2-8.5,3.6-13c1.4-4.5,2.9-9.3,4.7-14.4
			c1.7-5.1,3.7-10.6,5.8-16.7c2.1-6.1,4.4-12.8,6.9-20.1c2.5-7.3,5.2-15.5,8-24.4c-2.5,0.2-5,0.4-7.6,0.6c-2.6,0.2-5.1,0.6-7.5,1
			c-2.4,0.4-4.7,0.9-6.8,1.5c-2.1,0.6-3.9,1.4-5.5,2.3c-1.6,0.9-2.8,2.1-3.8,3.4c-0.9,1.3-1.4,2.9-1.4,4.7c0,0.1-0.1,0.6-0.2,1.6
			c-0.1,0.9-0.5,2-1.2,3.1c-0.7,1.1-1.8,2.1-3.4,3c-1.5,0.9-3.7,1.4-6.6,1.4c-2.8,0-5-0.5-6.6-1.4c-1.6-0.9-2.7-2-3.4-3.1
			C416.1,833.2,415.6,831.7,415.5,830z"/>
		<path class="st0" d="M535.6,871.2c1.4,2.7,2.4,5.6,3.1,8.7c0.7,3,1,6,1,8.8c0,2.8-0.3,5.6-0.9,8.4c-0.6,2.8-1.5,5.6-2.7,8.2
			c-1.2,2.6-2.6,5.1-4.3,7.4c-1.7,2.3-3.6,4.3-5.7,6c-2.2,1.7-4.5,3-7.1,4c-2.6,1-5.3,1.5-8.1,1.5c-4.2,0-7.7-0.9-10.7-2.7
			c-3-1.8-5.4-4.2-7.3-7.1c-1.9-2.9-3.3-6.2-4.1-9.9c-0.9-3.7-1.3-7.4-1.3-11.2c0-5.2,0.8-10.1,2.3-14.6c1.6-4.5,3.8-8.4,6.7-11.8
			s6.5-6,10.7-7.9c4.2-1.9,8.9-2.9,14.2-2.9c4.5,0,8.7,0.7,12.6,2.1c3.9,1.4,7.6,3.3,11,5.6c3.4,2.3,6.6,5,9.6,8
			c3,3,5.7,6.1,8.3,9.4l-1.3,10c-1.3-1.7-3-3.5-5.2-5.5c-2.2-2-4.5-3.9-6.9-5.8c-2.4-1.9-4.8-3.7-7.2-5.4c-2.4-1.7-4.4-3.1-6.1-4.2
			L535.6,871.2z M513.7,910.7c1.6,0,3.2-0.8,4.7-2.4c1.5-1.6,2.8-3.7,4-6.2s2-5.2,2.7-8.2c0.7-3,1-5.9,1-8.6c0-2.2-0.2-4.2-0.5-6.1
			c-0.3-1.9-0.8-3.5-1.5-4.9c-0.7-1.4-1.5-2.5-2.6-3.3c-1-0.8-2.3-1.2-3.8-1.2c-1.9,0-3.8,0.8-5.5,2.5c-1.7,1.7-3.3,3.8-4.6,6.3
			c-1.3,2.6-2.4,5.4-3.1,8.5c-0.8,3.1-1.1,6.1-1.1,9c0,2,0.2,3.9,0.6,5.6c0.4,1.7,1,3.3,1.8,4.6c0.8,1.3,1.9,2.3,3.2,3.1
			C510.3,910.3,511.9,910.7,513.7,910.7z"/>
		<path class="st0" d="M583.2,916.8c-2.6,2.3-5.2,4.1-8,5.5c-2.8,1.4-5.4,2.1-8,2.1c-2.3,0-4.5-0.5-6.6-1.4c-2.2-0.9-4.1-2.2-5.7-4
			c-1.7-1.7-3-3.8-4-6.3c-1-2.5-1.5-5.3-1.5-8.4c0-3.5,0.5-7.2,1.5-10.9c1-3.7,2.4-7.4,4.1-10.9c1.7-3.6,3.8-6.9,6.2-10.1
			c2.4-3.2,5-5.9,7.8-8.3c2.8-2.4,5.8-4.2,9-5.6c3.1-1.4,6.3-2.1,9.6-2.1c1.1,0,1.9,0.2,2.6,0.6c0.6,0.4,1.1,0.9,1.5,1.5
			c0.4,0.5,0.8,1.1,1.2,1.6c0.4,0.5,0.9,0.9,1.4,1.1c0.6,0.2,1.1,0.4,1.7,0.5c0.6,0.1,1.2,0.1,1.8,0.1c0.5,0,1.1,0,1.6,0
			c0.5,0,1.1,0,1.6,0c0.7,0,1.4,0.1,2,0.2c0.6,0.1,1.2,0.4,1.6,0.9c0.5,0.5,0.8,1.1,1.1,2c0.3,0.9,0.4,2,0.4,3.5
			c0,1.2-0.1,2.9-0.3,5c-0.2,2.1-0.5,4.4-0.8,6.9c-0.3,2.6-0.7,5.3-1.1,8.1c-0.4,2.9-0.8,5.7-1.2,8.4c-1,6.5-2.1,13.5-3.4,20.9
			c1.4-0.8,3-1.8,4.6-3c1.7-1.2,3.5-2.8,5.5-4.7c2-2,4.3-4.5,6.8-7.5c2.5-3,5.3-6.7,8.4-11.2l3.4,15.7c-0.9,1.5-1.9,3-3.3,4.5
			c-1.3,1.5-2.8,3.1-4.5,4.6s-3.3,3-5.1,4.5c-1.8,1.4-3.5,2.8-5.2,4.1c-4,3-8.3,6-13,8.8c-0.9,5.1-2,10-3.2,14.8
			c-1.2,4.8-2.7,9.3-4.4,13.5c-1.7,4.2-3.6,8-5.7,11.5c-2.2,3.5-4.6,6.5-7.3,9c-2.7,2.5-5.8,4.5-9.1,5.8c-3.4,1.4-7.1,2.1-11.1,2.1
			c-1.6,0-3.3-0.2-5.2-0.5c-1.9-0.3-3.6-1-5.2-2s-2.9-2.4-3.9-4.3c-1-1.8-1.6-4.3-1.6-7.4c0-2.1,0.5-4.5,1.6-7.2
			c1.1-2.7,2.6-5.5,4.5-8.4c1.9-3,4.1-6,6.7-9.2c2.6-3.2,5.4-6.4,8.5-9.5c3-3.2,6.2-6.3,9.6-9.4c3.3-3.1,6.7-6,10.1-8.8L583.2,916.8
			z M557.1,976.4c2,0,3.9-0.6,5.6-1.7c1.8-1.2,3.4-2.7,4.9-4.6c1.5-1.9,2.8-4,4.1-6.4c1.2-2.4,2.3-4.9,3.3-7.4
			c0.9-2.5,1.7-5,2.4-7.4c0.7-2.4,1.2-4.6,1.6-6.4c-1.8,1.2-3.7,2.7-5.6,4.4c-1.9,1.7-3.8,3.5-5.6,5.5c-1.8,2-3.5,4-5.2,6.1
			c-1.6,2.1-3.1,4.1-4.3,6c-1.2,1.9-2.2,3.7-2.9,5.4c-0.7,1.7-1.1,3-1.1,4.1C554.3,975.6,555.2,976.4,557.1,976.4z M567.6,901.3
			c0,1.2,0.1,2.3,0.2,3.4c0.2,1.1,0.5,2.1,0.9,3c0.4,0.9,1,1.6,1.7,2.1c0.7,0.5,1.6,0.8,2.7,0.8c1.7,0,3.3-0.8,4.7-2.3
			c1.4-1.5,2.6-3.3,3.7-5.5s1.9-4.3,2.5-6.6c0.6-2.3,1.1-4.2,1.2-5.7l4.3-20.8c-1.9,0-3.8,0.5-5.7,1.5c-1.8,1-3.6,2.3-5.2,3.9
			c-1.6,1.7-3.1,3.5-4.5,5.7c-1.4,2.1-2.6,4.4-3.5,6.7s-1.8,4.7-2.3,7.1C567.9,897,567.6,899.2,567.6,901.3z"/>
		<path class="st0" d="M643.7,924.3c-4.4,0-8.3-0.8-11.7-2.4c-3.3-1.6-6.1-3.8-8.3-6.5c-2.2-2.7-3.9-5.9-5-9.4
			c-1.1-3.6-1.7-7.3-1.7-11.2c0-2.6,0.3-5.4,0.8-8.4c0.5-3,1.3-5.8,2.4-8.7c1.1-2.8,2.4-5.5,4-8.1c1.6-2.6,3.5-4.8,5.6-6.8
			c2.1-2,4.6-3.5,7.2-4.7c2.7-1.2,5.6-1.7,8.9-1.7c2.6,0,5.1,0.4,7.4,1.3c2.3,0.9,4.2,2,5.9,3.6c1.7,1.5,3,3.4,3.9,5.6
			c0.9,2.2,1.4,4.6,1.4,7.3c0,2.9-0.7,5.9-2.2,8.8c-1.4,2.9-3.4,5.7-6,8.3c-2.6,2.6-5.6,4.9-9.1,6.9c-3.5,2-7.3,3.6-11.4,4.7
			c0.7,1.3,1.4,2.3,2.1,3.2c0.7,0.9,1.4,1.5,2.1,2c0.7,0.5,1.5,0.8,2.2,1c0.8,0.2,1.6,0.3,2.5,0.3c2.8,0,5.8-0.6,9-1.7
			c3.1-1.1,6.2-2.6,9.2-4.3c3-1.7,5.8-3.6,8.4-5.6c2.6-2,4.9-3.9,6.7-5.7l9.1,9.5c-4.2,4.3-8.6,8.1-13.3,11.4
			c-2,1.4-4.2,2.8-6.6,4.2c-2.3,1.4-4.8,2.6-7.4,3.6c-2.6,1.1-5.2,1.9-8,2.6C649.3,924,646.5,924.3,643.7,924.3z M634.3,891
			c1.7,0,3.6-0.4,5.6-1.3c2-0.9,3.9-2,5.6-3.4c1.7-1.4,3.2-2.9,4.4-4.5c1.2-1.6,1.8-3.2,1.8-4.7c0-2.1-0.4-3.9-1.2-5.2
			c-0.8-1.4-1.7-2.1-2.9-2.1c-2,0-3.8,0.4-5.2,1.1c-1.4,0.8-2.6,1.7-3.6,2.9c-1,1.2-1.7,2.6-2.3,4.1c-0.6,1.5-1,3.1-1.3,4.6
			c-0.3,1.6-0.5,3.1-0.6,4.5C634.3,888.7,634.3,889.9,634.3,891z"/>
		<path class="st0" d="M734.5,908.4c-4.5,2.6-8.6,5-12.1,6.9c-3.5,2-6.7,3.6-9.5,5c-2.8,1.3-5.2,2.3-7.4,3c-2.2,0.7-4.1,1-5.8,1
			c-3.6,0-6.8-1.1-9.5-3.3c-2.7-2.2-5-5.3-6.9-9.4c-1.8-4.1-3.2-9-4.1-14.8c-0.9-5.8-1.4-12.4-1.4-19.6c0-2.8,0.1-5.9,0.4-9.1
			c0.2-3.2,0.6-6.4,1-9.6c-1.4-0.2-2.5-0.4-3.3-0.5c-0.8-0.2-1.6-0.3-2.5-0.5c-0.9-0.2-2-0.3-3.3-0.5c-1.3-0.2-3.3-0.4-5.8-0.7
			c-1.1-0.1-2-0.4-2.6-0.8c-0.6-0.4-1.1-0.9-1.3-1.4c-0.3-0.5-0.4-1.1-0.5-1.7c0-0.6-0.1-1.1-0.1-1.5c0-0.9,0.5-1.7,1.4-2.2
			c0.9-0.5,2.1-0.9,3.5-1.1c1.4-0.2,3-0.4,4.7-0.4c1.7,0,3.4,0,5,0c1.6,0,3,0.1,4.3,0.1c1.3,0,2.1,0,2.6-0.1
			c1.3-6.4,2.9-12.6,4.9-18.5c2-6,4.2-11.3,6.6-15.9c2.4-4.7,5.1-8.4,8-11.2c2.9-2.8,5.9-4.2,9.1-4.2c2,0,3.9,0.6,5.6,1.7
			c1.7,1.1,3.1,2.6,4.3,4.5c1.2,1.9,2.1,4.1,2.7,6.6s1,5.2,1,7.9c0,2.3-0.3,4.8-1,7.3c-0.7,2.6-1.6,5.2-2.7,7.9
			c-1.1,2.7-2.5,5.4-4,8.1c-1.5,2.7-3.2,5.5-4.9,8.1c0.4,0,1.1,0.1,2.1,0.1c1,0,2.1,0.1,3.4,0.1c1.3,0,2.7,0.1,4.2,0.2
			c1.5,0.1,3,0.1,4.4,0.2c1.4,0,2.7,0.1,4,0.1c1.2,0,2.2,0.1,3,0.1c0.9,0,1.6,0.5,2.1,1.4c0.4,0.9,0.6,2,0.6,3.4c0,1.7-0.5,3-1.4,4
			c-0.9,1-2,1.6-3.1,1.6h-27.2c-1.4,1.9-2.8,3.7-4.1,5.6c-1.4,1.8-2.7,3.5-3.9,4.9c-0.2,2.9-0.4,5.8-0.5,8.6c0,1.2-0.1,2.5-0.1,3.8
			c0,1.3-0.1,2.6-0.1,3.9c0,1.3-0.1,2.5-0.1,3.7c0,1.2,0,2.3,0,3.3c0,2.6,0.2,4.7,0.7,6.4c0.5,1.7,1.2,3.2,2.1,4.3
			c0.9,1.1,2,1.9,3.3,2.4c1.3,0.5,2.8,0.7,4.4,0.7c1,0,2.2-0.2,3.7-0.7c1.5-0.5,3.1-1.1,4.9-1.9c1.8-0.8,3.6-1.8,5.6-2.9
			c2-1.1,3.9-2.4,5.8-3.7c1.9-1.3,3.7-2.8,5.5-4.3s3.3-3,4.7-4.6V908.4z M711.8,818.7c0-0.5,0-1.1-0.1-1.7c-0.1-0.6-0.2-1.2-0.5-1.8
			c-0.2-0.6-0.6-1-1.1-1.4c-0.5-0.4-1.2-0.6-2.1-0.6c-1.2,0-2.5,1.1-3.7,3.3c-1.3,2.2-2.5,4.9-3.6,8.3c-1.2,3.4-2.2,7.1-3.3,11.2
			c-1,4.1-1.9,8-2.8,11.8c0.7,0.1,1.4,0.2,2.1,0.2s1.4,0.2,2.2,0.2c1.4-2.4,2.9-5,4.4-7.8c1.5-2.8,2.9-5.6,4.1-8.3
			c1.2-2.7,2.2-5.3,3-7.6C711.4,822.1,711.8,820.2,711.8,818.7z"/>
		<path class="st0" d="M756.7,880.2c1.9-2.6,4.1-5.3,6.5-8.2c2.4-2.9,4.9-5.7,7.5-8.2c2.6-2.5,5.2-4.6,7.8-6.3
			c2.6-1.7,5-2.5,7.3-2.5c0.6,0,1.2,0.1,1.9,0.3c0.7,0.2,1.4,0.6,2,1.2c0.6,0.6,1.2,1.4,1.6,2.4c0.4,1,0.6,2.3,0.6,3.9
			c0,3.2-0.4,6.3-1.3,9.4c-0.9,3-1.9,6.1-2.9,9.1c-1.1,3-2,6.2-2.9,9.3c-0.9,3.2-1.3,6.5-1.3,9.9c0,1.9,0.3,3.4,0.9,4.5
			c0.6,1.1,1.3,1.7,2.2,1.7c1.1,0,2.3-0.2,3.6-0.7c1.3-0.5,2.6-1.1,3.8-1.8c1.3-0.8,2.5-1.6,3.8-2.6c1.2-1,2.4-2,3.5-3
			c2.6-2.4,5.1-5.1,7.7-8.2l1.2,18.9c-0.9,0.7-1.9,1.5-3.2,2.5c-1.3,1-2.7,2-4.3,3.2c-1.6,1.1-3.3,2.2-5.1,3.4
			c-1.8,1.1-3.7,2.1-5.6,3c-1.9,0.9-3.7,1.6-5.6,2.2c-1.9,0.6-3.6,0.9-5.4,0.9c-2.6,0-4.9-0.7-6.8-2.1c-1.9-1.4-3.5-3.2-4.7-5.3
			c-1.2-2.1-2.2-4.5-2.8-7.1c-0.6-2.6-0.9-5-0.9-7.2c0-1.5,0.2-3.2,0.6-5.1c0.4-1.9,0.9-3.7,1.5-5.6c0.6-1.9,1.3-3.7,2-5.5
			c0.7-1.8,1.4-3.4,2.1-4.8c0.6-1.4,1.2-2.6,1.7-3.5c0.5-0.9,0.8-1.4,0.9-1.6l-1.5-0.2c-0.8,0.5-2.2,1.8-4.1,4s-4.1,4.8-6.5,8
			c-2.4,3.2-4.9,6.9-7.5,10.9c-2.6,4-4.9,8.2-7,12.5c-1,2.1-1.9,4-2.6,5.6c-0.7,1.6-1.3,2.9-1.9,3.9c-0.6,1-1.3,1.8-2.1,2.3
			c-0.8,0.5-1.7,0.8-2.9,0.8c-1.6,0-2.8-0.4-3.7-1.3c-0.9-0.9-1.6-2.1-2.1-3.6c-0.5-1.5-0.8-3.2-0.9-5.1c-0.1-1.9-0.2-3.8-0.2-5.8
			c0-3.2,0-7.3,0.1-12.4c0.1-5.1,0.3-10.8,0.7-17c0.4-6.2,0.9-12.8,1.6-19.7c0.7-6.9,1.7-13.7,3-20.4c1.3-6.7,2.9-13.2,4.9-19.3
			c2-6.1,4.3-11.5,7.2-16.2c2.8-4.7,6.1-8.4,9.9-11.1c3.8-2.7,8.1-4.1,13-4.1c2.6,0,4.6,0.4,6.3,1.1c1.6,0.8,2.9,1.8,3.9,3.2
			c1,1.4,1.6,3,2,4.9c0.4,1.9,0.6,4.1,0.6,6.4c0,3.5-0.5,7.4-1.5,11.6s-2.3,8.7-3.9,13.3c-1.6,4.6-3.5,9.2-5.6,13.9
			c-2.1,4.7-4.2,9.3-6.4,13.7c-2.2,4.4-4.3,8.6-6.4,12.5c-2.1,3.9-4,7.4-5.6,10.3L756.7,880.2z M763,836.4
			c2.8-7.2,4.8-13.3,6.1-18.3s1.9-8.6,1.9-11c0-3.6-0.5-5.4-1.4-5.4c-1.2,0-3,2-5.5,6c-2.4,4-5.2,9.9-8.5,17.5
			c-0.8,2.6-1.5,5.3-2.2,8.1c-0.7,2.8-1.3,5.6-1.8,8.3c-0.5,2.8-1,5.5-1.5,8.1c-0.5,2.7-0.8,5.2-1.2,7.6c-0.8,5.6-1.4,11.1-1.8,16.5
			c1.3-3,2.7-6.2,4.2-9.7c1.5-3.5,3-7,4.5-10.4c1.5-3.4,2.8-6.7,4.1-9.7C761.1,841.1,762.2,838.5,763,836.4z"/>
		<path class="st0" d="M828.9,924.3c-4.4,0-8.3-0.8-11.7-2.4c-3.3-1.6-6.1-3.8-8.3-6.5c-2.2-2.7-3.9-5.9-5-9.4
			c-1.1-3.6-1.7-7.3-1.7-11.2c0-2.6,0.3-5.4,0.8-8.4c0.5-3,1.3-5.8,2.4-8.7c1.1-2.8,2.4-5.5,4-8.1c1.6-2.6,3.5-4.8,5.6-6.8
			c2.1-2,4.6-3.5,7.2-4.7c2.7-1.2,5.6-1.7,8.9-1.7c2.6,0,5.1,0.4,7.4,1.3c2.3,0.9,4.2,2,5.9,3.6c1.7,1.5,3,3.4,3.9,5.6
			c0.9,2.2,1.4,4.6,1.4,7.3c0,2.9-0.7,5.9-2.2,8.8c-1.4,2.9-3.4,5.7-6,8.3c-2.6,2.6-5.6,4.9-9.1,6.9c-3.5,2-7.3,3.6-11.4,4.7
			c0.7,1.3,1.4,2.3,2.1,3.2c0.7,0.9,1.4,1.5,2.1,2c0.7,0.5,1.5,0.8,2.2,1c0.8,0.2,1.6,0.3,2.5,0.3c2.8,0,5.8-0.6,9-1.7
			c3.1-1.1,6.2-2.6,9.2-4.3c3-1.7,5.8-3.6,8.4-5.6c2.6-2,4.9-3.9,6.7-5.7l9.1,9.5c-4.2,4.3-8.6,8.1-13.3,11.4
			c-2,1.4-4.2,2.8-6.6,4.2c-2.3,1.4-4.8,2.6-7.4,3.6c-2.6,1.1-5.2,1.9-8,2.6S831.7,924.3,828.9,924.3z M819.4,891
			c1.7,0,3.6-0.4,5.6-1.3c2-0.9,3.9-2,5.6-3.4c1.7-1.4,3.2-2.9,4.4-4.5c1.2-1.6,1.8-3.2,1.8-4.7c0-2.1-0.4-3.9-1.2-5.2
			c-0.8-1.4-1.7-2.1-2.9-2.1c-2,0-3.8,0.4-5.2,1.1c-1.4,0.8-2.6,1.7-3.6,2.9c-1,1.2-1.7,2.6-2.3,4.1c-0.6,1.5-1,3.1-1.3,4.6
			s-0.5,3.1-0.6,4.5C819.5,888.7,819.4,889.9,819.4,891z"/>
		<path class="st0" d="M860.7,909.5c0-2.1,0.1-4.5,0.4-7.3s0.6-5.7,1-8.8c0.4-3.1,0.9-6.2,1.4-9.4c0.5-3.2,1.1-6.2,1.7-9.1
			c0.6-2.9,1.2-5.5,1.8-7.9c0.6-2.4,1.2-4.4,1.8-6c0.4-1,0.8-1.9,1.1-2.5c0.4-0.6,0.8-1.1,1.3-1.5c0.5-0.4,1.1-0.6,1.8-0.7
			c0.7-0.1,1.6-0.2,2.7-0.2c1.2,0,2.2,0.1,2.9,0.2c0.7,0.1,1.2,0.4,1.5,0.9c0.3,0.4,0.5,1.1,0.6,1.9c0.1,0.9,0.1,2,0.1,3.5
			c0,1.7,0,3.9,0,6.3s0,4.9,0.1,7.3h0.8c0.9-1.9,2-4,3.2-6.3c1.2-2.3,2.6-4.5,4.1-6.6c1.6-2,3.3-3.7,5.3-5.1c2-1.4,4.3-2.1,6.9-2.1
			c0.9,0,1.8,0.2,2.6,0.5c0.8,0.3,1.6,0.7,2.2,1.3c0.6,0.6,1.1,1.3,1.5,2.1c0.4,0.8,0.6,1.8,0.6,2.8c0,0.8-0.1,1.9-0.4,3.4
			c-0.2,1.4-0.5,3-0.8,4.5c-0.3,1.6-0.5,3.1-0.8,4.6c-0.2,1.5-0.4,2.7-0.4,3.7c0,1.7,0.2,3.1,0.5,4.3c0.3,1.1,0.8,2,1.3,2.7
			c0.5,0.7,1.2,1.2,1.8,1.5c0.7,0.3,1.4,0.4,2.2,0.4c2.1,0,4.3-0.5,6.6-1.4c2.3-0.9,4.3-2,6.2-3.2c2.2-1.4,4.4-2.9,6.5-4.7
			l-1.1,16.6c-1.2,0.8-2.6,1.7-4.2,2.7c-1.6,1-3.2,1.9-5,2.8c-1.8,0.9-3.6,1.6-5.5,2.2c-1.9,0.6-3.9,0.9-5.8,0.9
			c-3.5,0-6.4-0.7-8.6-2.2c-2.2-1.4-3.9-3.3-5.2-5.7c-1.3-2.3-2.2-5-2.8-7.9c-0.6-2.9-1.1-5.8-1.5-8.8h-1.1l-12.7,35.4
			c-0.7,1.8-1.3,3.4-1.9,4.6c-0.6,1.2-1.2,2.2-1.8,2.9c-0.6,0.8-1.3,1.3-2,1.6c-0.7,0.3-1.5,0.5-2.3,0.5c-1.9,0-3.5-0.4-4.7-1.2
			c-1.2-0.8-2.1-1.9-2.7-3.3c-0.6-1.4-1.1-3-1.3-4.7C860.8,913.2,860.7,911.4,860.7,909.5z"/>
		<path class="st0" d="M991.4,889.3c-1.4,5.1-3,9.9-4.9,14.1c-1.9,4.3-3.9,8-6,11.1c-2.1,3.1-4.3,5.5-6.6,7.2
			c-2.3,1.7-4.5,2.6-6.7,2.6c-3.7,0-6.4-2.7-8.1-8.1c-1.7-5.4-2.6-13.5-2.6-24.1c0-1.5,0-2.8,0-4c0-1.2,0-2.3,0.1-3.5
			c0-1.2,0.1-2.4,0.2-3.8s0.2-3,0.4-4.9c0-0.5,0.2-1.3,0.3-2.4c0.2-1.2,0.4-2.5,0.8-3.9c0.4-1.5,0.8-3,1.4-4.6
			c0.6-1.6,1.3-3,2.3-4.3c0.9-1.3,2-2.4,3.3-3.2c1.3-0.9,2.8-1.3,4.5-1.3l1.7,0.1c2.1,0,3.7,0.4,4.8,1.2c1.1,0.8,1.7,1.9,1.7,3.3
			l-5,38.3l0.9-0.1c2.1-4.8,3.9-9.2,5.4-13.2c1.5-4,3-7.6,4.3-10.7c1.3-3.2,2.6-5.9,3.8-8.3c1.2-2.4,2.5-4.3,3.9-5.9
			c1.4-1.6,3-2.7,4.8-3.5c1.8-0.8,3.9-1.2,6.3-1.2c2.1,0,3.7,0.4,4.8,1.2c1.1,0.8,1.7,1.9,1.7,3.3l-5.8,38.3l1-0.1l16.9-37.8
			c0.6-1.3,1.8-2.5,3.7-3.5c1.9-1,4.1-1.5,6.7-1.5c2.7,0,4.9,0.6,6.5,1.7c1.7,1.1,2.5,2.5,2.5,4.3c0,1.3-0.2,2.7-0.7,4.3
			c-0.5,1.5-0.9,2.9-1.5,4.2c-0.5,1.3-1,2.4-1.5,3.3c-0.5,0.9-0.7,1.4-0.8,1.5c-1,1.9-2,3.6-2.9,5.2c-0.9,1.6-1.6,3-2.3,4.3
			c-0.8,1.4-1.5,2.7-2.1,4c0.7,1.8,1.5,3.5,2.6,5c0.9,1.2,2,2.4,3.3,3.4c1.3,1,2.9,1.6,4.7,1.6c1.6,0,3.4-0.4,5.4-1.2
			c2-0.8,3.9-1.8,5.7-2.8c2.1-1.2,4.3-2.5,6.5-4v16.7c-3.1,2-6.3,3.6-9.7,4.7c-3.3,1.2-6.5,1.8-9.6,1.8c-2.4,0-4.7-0.3-6.8-0.9
			c-2.2-0.6-4-1.5-5.7-2.7c-1.6-1.2-2.9-2.8-3.9-4.8c-1-2-1.5-4.3-1.5-7.1c-1.6,3.8-3.3,7.2-5,10.4c-1.7,3.1-3.5,5.8-5.4,8.1
			s-3.7,4-5.6,5.3c-1.9,1.3-3.8,1.9-5.7,1.9c-0.7,0-1.2-0.5-1.7-1.5c-0.5-1-0.9-2.4-1.2-4.1c-0.3-1.7-0.6-3.7-0.8-6
			c-0.2-2.3-0.4-4.7-0.5-7.3s-0.2-5.2-0.2-7.9s-0.1-5.3-0.1-7.9L991.4,889.3z"/>
		<path class="st0" d="M1076.7,924.3c-4.4,0-8.3-0.8-11.7-2.4c-3.3-1.6-6.1-3.8-8.3-6.5c-2.2-2.7-3.9-5.9-5-9.4
			c-1.1-3.6-1.7-7.3-1.7-11.2c0-2.6,0.3-5.4,0.8-8.4c0.5-3,1.3-5.8,2.4-8.7c1.1-2.8,2.4-5.5,4-8.1c1.6-2.6,3.5-4.8,5.6-6.8
			c2.1-2,4.6-3.5,7.2-4.7c2.7-1.2,5.6-1.7,8.9-1.7c2.6,0,5.1,0.4,7.4,1.3c2.3,0.9,4.2,2,5.9,3.6c1.7,1.5,3,3.4,3.9,5.6
			c0.9,2.2,1.4,4.6,1.4,7.3c0,2.9-0.7,5.9-2.2,8.8c-1.4,2.9-3.4,5.7-6,8.3c-2.6,2.6-5.6,4.9-9.1,6.9c-3.5,2-7.3,3.6-11.4,4.7
			c0.7,1.3,1.4,2.3,2.1,3.2c0.7,0.9,1.4,1.5,2.1,2c0.7,0.5,1.5,0.8,2.2,1c0.8,0.2,1.6,0.3,2.5,0.3c2.8,0,5.8-0.6,9-1.7
			c3.1-1.1,6.2-2.6,9.2-4.3c3-1.7,5.8-3.6,8.4-5.6c2.6-2,4.9-3.9,6.7-5.7l9.1,9.5c-4.2,4.3-8.6,8.1-13.3,11.4
			c-2,1.4-4.2,2.8-6.6,4.2c-2.3,1.4-4.8,2.6-7.4,3.6c-2.6,1.1-5.2,1.9-8,2.6S1079.5,924.3,1076.7,924.3z M1067.3,891
			c1.7,0,3.6-0.4,5.6-1.3c2-0.9,3.9-2,5.6-3.4c1.7-1.4,3.2-2.9,4.4-4.5c1.2-1.6,1.8-3.2,1.8-4.7c0-2.1-0.4-3.9-1.2-5.2
			c-0.8-1.4-1.7-2.1-2.9-2.1c-2,0-3.8,0.4-5.2,1.1c-1.4,0.8-2.6,1.7-3.6,2.9c-1,1.2-1.7,2.6-2.3,4.1c-0.6,1.5-1,3.1-1.3,4.6
			s-0.5,3.1-0.6,4.5C1067.3,888.7,1067.3,889.9,1067.3,891z"/>
		<path class="st0" d="M1169,924.3c-4.3,0-8.2-0.8-11.4-2.4c-3.3-1.6-6-3.8-8.3-6.4c-2.2-2.7-3.9-5.8-5-9.4
			c-1.1-3.5-1.7-7.2-1.7-11.1c0-2.7,0.3-5.6,0.8-8.6c0.6-3,1.4-5.9,2.5-8.8c1.1-2.9,2.5-5.6,4.1-8.2c1.6-2.6,3.5-4.9,5.7-6.8
			c2.1-2,4.5-3.5,7.2-4.7c2.6-1.2,5.6-1.7,8.7-1.7c2.7,0,5.2,0.4,7.5,1.2c2.3,0.8,4.3,2,5.9,3.4c1.6,1.5,2.9,3.2,3.8,5.2
			c0.9,2,1.4,4.2,1.4,6.5c0,1.6-0.2,3.2-0.6,4.7c-0.4,1.6-1.1,3-1.9,4.2c-0.8,1.3-1.8,2.3-3,3c-1.2,0.8-2.5,1.1-4,1.1
			c-2.2,0-3.7-0.6-4.4-1.8c-0.7-1.2-1-2.8-1-4.9c0-0.9,0-1.7,0.1-2.7c0.1-0.9,0.1-1.8,0.1-2.6c0-1.1-0.1-2.1-0.4-2.8
			c-0.2-0.8-0.8-1.1-1.6-1.1c-1.9,0-3.6,0.5-5,1.4c-1.4,0.9-2.5,2.1-3.5,3.6c-1,1.5-1.7,3.2-2.3,5c-0.6,1.9-1,3.7-1.3,5.6
			c-0.3,1.8-0.5,3.6-0.6,5.3c-0.1,1.7-0.1,3.1-0.1,4.2c0,1.7,0.2,3.5,0.5,5.3c0.3,1.8,0.9,3.5,1.7,5.1c0.9,1.5,2,2.8,3.5,3.8
			c1.5,1,3.4,1.5,5.7,1.5c2.3,0,4.8-0.7,7.5-2.1c2.7-1.4,5.5-3.2,8.3-5.3c2.8-2.1,5.4-4.5,7.9-7c2.5-2.6,4.7-5,6.4-7.2l4.9,8.2
			c-3.5,5.1-7.4,9.6-11.5,13.5c-1.7,1.7-3.7,3.4-5.7,5c-2.1,1.6-4.2,3-6.4,4.3c-2.2,1.3-4.6,2.3-7,3
			C1174,923.9,1171.5,924.3,1169,924.3z"/>
		<path class="st0" d="M1273.4,906.9c-1.1,1.5-2.5,3.3-4.4,5.3c-1.8,2-3.9,4-6.1,5.8c-2.3,1.8-4.7,3.4-7.3,4.7
			c-2.6,1.3-5.2,1.9-7.8,1.9c-3.1,0-5.7-1-7.8-3c-2.1-2-3.9-4.9-5.4-8.8c-1.1,1.3-2.5,2.7-4.2,4c-1.7,1.4-3.5,2.6-5.4,3.7
			c-2,1.1-4,2-6.1,2.7s-4.3,1.1-6.4,1.1c-2.3,0-4.5-0.5-6.6-1.4c-2.2-0.9-4.1-2.2-5.7-4c-1.7-1.7-3-3.8-4-6.3
			c-1-2.5-1.5-5.3-1.5-8.4c0-3.5,0.5-7.2,1.5-10.9c1-3.7,2.4-7.4,4.1-10.9c1.7-3.6,3.8-6.9,6.2-10.1c2.4-3.2,5-5.9,7.8-8.3
			c2.8-2.4,5.8-4.2,9-5.6c3.1-1.4,6.3-2.1,9.6-2.1c1.1,0,1.9,0.2,2.6,0.6c0.6,0.4,1.1,0.9,1.5,1.5c0.4,0.5,0.8,1.1,1.2,1.6
			c0.4,0.5,0.9,0.9,1.4,1.1c0.6,0.2,1.1,0.4,1.7,0.5c0.6,0.1,1.2,0.1,1.8,0.1c0.5,0,1.1,0,1.6,0c0.5,0,1.1,0,1.6,0
			c0.7,0,1.4,0.1,2,0.2c0.6,0.1,1.2,0.4,1.6,0.9c0.5,0.5,0.8,1.1,1.1,2c0.3,0.9,0.4,2,0.4,3.5c0,2.3-0.2,4.8-0.7,7.5
			c-0.5,2.8-1,5.6-1.6,8.5c-0.6,2.9-1.1,5.8-1.6,8.7c-0.5,2.9-0.7,5.7-0.7,8.3c0,2.2,0.2,4,0.6,5.2c0.4,1.3,1.3,1.9,2.6,1.9
			c1,0,2-0.2,3.1-0.7s2.2-1.1,3.3-1.9c1.1-0.8,2.2-1.7,3.3-2.7c1.1-1,2.2-2.1,3.2-3.2c2.3-2.6,4.7-5.4,7-8.6L1273.4,906.9z
			 M1212.9,901.3c0,1.2,0.1,2.3,0.2,3.4c0.2,1.1,0.5,2.1,0.9,3c0.4,0.9,1,1.6,1.7,2.1c0.7,0.5,1.6,0.8,2.7,0.8
			c1.7,0,3.3-0.8,4.7-2.3c1.4-1.5,2.6-3.3,3.7-5.5s1.9-4.3,2.5-6.6c0.6-2.3,1.1-4.2,1.2-5.7l4.3-20.8c-1.9,0-3.8,0.5-5.7,1.5
			c-1.8,1-3.6,2.3-5.2,3.9c-1.6,1.7-3.1,3.5-4.5,5.7c-1.4,2.1-2.6,4.4-3.5,6.7s-1.8,4.7-2.3,7.1
			C1213.2,897,1212.9,899.2,1212.9,901.3z"/>
		<path class="st0" d="M1265,909.5c0-3.1,0.2-6.7,0.6-10.8c0.4-4.1,0.9-8.2,1.4-12.5c0.6-4.2,1.2-8.3,1.9-12.2
			c0.7-3.9,1.4-7.3,2.1-10.1c0.5-2.2,1.5-4,3-5.5c1.5-1.5,3.5-2.2,6.1-2.2s4.3,0.8,5.3,2.3c1,1.6,1.5,3.6,1.5,6.2
			c0,0.7-0.1,1.7-0.2,2.9c-0.1,1.2-0.3,2.5-0.5,4c-0.2,1.4-0.4,2.9-0.7,4.5c-0.2,1.5-0.5,3-0.7,4.3c-0.2,1.3-0.4,2.4-0.5,3.4
			c-0.1,1-0.2,1.6-0.2,1.9h1.4c0.3-0.5,0.7-1.4,1.3-2.5c0.6-1.2,1.3-2.5,2.1-4c0.8-1.5,1.7-3.1,2.6-4.8c0.9-1.7,1.8-3.3,2.6-4.8
			c0.8-1.5,1.5-2.9,2.2-4.1c0.7-1.2,1.2-2.1,1.5-2.6c1.5-2.6,3.2-4.3,5.2-5.2c1.9-0.9,4.1-1.4,6.4-1.4c2.4,0,4.2,1,5.6,3
			c1.4,2,2.1,4.7,2.1,8.2c0,0.5-0.1,1.4-0.3,2.6c-0.2,1.2-0.5,2.7-0.8,4.4c-0.3,1.7-0.7,3.6-1.1,5.6c-0.4,2-0.8,4.1-1.1,6.2
			c-0.3,2.1-0.6,4.2-0.8,6.3c-0.2,2.1-0.3,4-0.3,5.7c0,2.9,0.4,5.3,1.1,7.2c0.7,1.9,1.9,2.8,3.4,2.8c0.7,0,1.5-0.2,2.4-0.6
			c0.9-0.4,1.9-1,3-1.7c1.1-0.7,2.1-1.5,3.3-2.4c1.1-0.9,2.2-1.8,3.3-2.8c2.5-2.2,5.1-4.7,7.9-7.5l1.2,15.9l-3.5,2.7
			c-1.9,1.5-3.9,2.9-5.9,4.4c-2,1.5-4.1,2.8-6.3,3.9c-2.2,1.2-4.4,2.1-6.8,2.8c-2.4,0.7-4.8,1.1-7.4,1.1c-2.6,0-4.8-1.9-6.6-5.6
			s-2.7-9.2-2.7-16.5c0-2.8,0.2-5.9,0.6-9.2c0.4-3.3,0.9-6.8,1.4-10.6h-1.1l-18.6,36.9c-0.9,1.9-2,3.3-3.2,4
			c-1.2,0.7-2.6,1.1-4.1,1.1c-1.9,0-3.5-0.4-4.7-1.2c-1.2-0.8-2.1-1.9-2.7-3.3c-0.6-1.4-1.1-3-1.3-4.7
			C1265.2,913.2,1265,911.4,1265,909.5z"/>
	</g>
	<g>
		<g>
			<g>
				<g>
					<g>
						<g>
							<g>
								<g>
									<polygon class="st0" points="878.4,101.1 895.1,134.8 932.2,140.2 905.4,166.3 911.6,203.4 878.4,185.9 845.2,203.4 
										851.5,166.3 824.7,140.2 861.9,134.8 									"/>
								</g>
							</g>
						</g>
					</g>
				</g>
			</g>
			<g>
				<g>
					<g>
						<g>
							<g>
								<g>
									<polygon class="st0" points="1058.4,133.9 1075,167.6 1112.2,173 1085.3,199.2 1091.6,236.3 1058.4,218.7 1025.1,236.3 
										1031.5,199.2 1004.6,173 1041.7,167.6 									"/>
								</g>
							</g>
						</g>
					</g>
				</g>
			</g>
			<g>
				<g>
					<g>
						<g>
							<g>
								<g>
									<polygon class="st0" points="698.5,133.9 715.1,167.6 752.3,173 725.4,199.2 731.8,236.3 698.5,218.7 665.3,236.3 
										671.7,199.2 644.7,173 681.9,167.6 									"/>
								</g>
							</g>
						</g>
					</g>
				</g>
			</g>
		</g>
		<g>
			<g>
				<g>
					<path class="st0" d="M632,177.1c-103.7,7.7-207.5,19.1-310.8,31.5c104-4.8,208.2-9.1,312.3-11.9
						C632.7,190.1,632.1,183.6,632,177.1z"/>
					<path class="st0" d="M1126.1,196.4c103.1,2.7,206.4,6.6,309.5,10.8C1334.3,196,1232.5,185.4,1131,178
						C1130.7,183.9,1128.9,190.2,1126.1,196.4z"/>
				</g>
			</g>
		</g>
	</g>
	<g>
		<g>
			<path class="st1" d="M166.4,748.4c-15.9,2.1-31.8,4.3-47.6,6.5c-18.4-130.5-36.7-261-55.1-391.6c17-2.4,34.1-4.7,51.2-7
				C132.1,487.1,149.2,617.7,166.4,748.4z M276.2,735.1c-15.9,1.8-31.8,3.6-47.7,5.5c-27.6-61.7-55.8-123.1-84.7-184.2
				c-0.2-1.3-0.3-2-0.4-3.3c8.6-68,17.8-136,27.5-203.9c15.7-1.9,31.3-3.7,47-5.5c-10.6,67.1-20.6,134.2-30,201.5
				C218,608.2,247.5,671.5,276.2,735.1z"/>
			<path class="st1" d="M298.6,732.7c-13.9-131.1-27.8-262.1-41.7-393.2c42.4-4.4,84.8-8.5,127.3-12.1c1.3,15.9,2.7,31.8,4,47.7
				c-25.1,2.1-50.2,4.4-75.3,6.8c3.9,39.8,7.7,79.7,11.6,119.5c21.8-2.1,43.6-4.1,65.4-6c1.4,15.9,2.7,31.8,4.1,47.7
				c-21.6,1.9-43.3,3.8-64.9,5.9c4.2,43.7,8.5,87.3,12.7,131c23.8-2.3,47.6-4.4,71.3-6.4c1.3,15.9,2.7,31.8,4,47.7
				C377.5,724.8,338,728.6,298.6,732.7z"/>
			<path class="st1" d="M415.8,324.9c33.6-2.6,67.1-4.9,100.7-6.9c40.7-2.7,60.7,26.6,62.3,64.4c1.6,32.5,3.2,64.9,4.8,97.4
				c1.7,24.6-2.9,53.7-26.1,67c14.5,54.1,28.6,108.4,42.5,162.7c-15.1,0.8-30.3,1.6-45.4,2.4c-13.6-52.6-27.4-105.1-41.5-157.5
				c-9.9,0.6-19.9,1.3-29.8,2c3.7,53.1,7.3,106.2,11,159.3c-16,1.1-31.9,2.3-47.9,3.5C436.2,587.7,426,456.3,415.8,324.9z
				 M480.3,511.2c10.9-0.7,21.8-1.5,32.6-2.1c16.2-1,21.8-15.3,20.6-29.9c-1.7-28.4-3.3-56.8-5-85.2c-0.5-14.9-8.2-28.3-24.5-27.2
				c-11.2,0.7-22.3,1.4-33.5,2.2C473.7,416.4,477,463.8,480.3,511.2z"/>
			<path class="st1" d="M714.4,415.8c-0.3-11.6-0.6-23.1-0.9-34.7c0.8-14.1-9.3-23.5-22.9-23.1c-3.2,0.1-4.8,0.1-8,0.2
				c-14.4-0.8-21.5,11.6-21,24.4c0.8,21.8,1.5,43.7,2.3,65.5c0.3,7.3,1.8,12.2,4.7,14.7c2.9,2.5,7.5,5.6,13.9,9.5
				c16.1,8.5,32.1,17.1,48,25.7c10.5,6,17.9,10.7,22.3,14.1c4.4,3.4,8.2,7.7,10.3,12.5c3.7,8.4,4,18.8,4.1,28.3
				c0.5,28.1,0.9,56.2,1.4,84.2c0.8,37.3-16.9,67.1-56.8,67.9c-9.8,0.3-19.6,0.6-29.4,0.9c-42.3,1.7-59.1-32.8-60.6-70.4
				c-0.3-7.9-0.5-11.9-0.9-19.8c16.2-0.7,32.5-1.4,48.7-1.9c0.3,8.6,0.4,12.9,0.7,21.5c0.4,13.6,8.4,23,22.5,22.4
				c3.4-0.1,5.1-0.2,8.6-0.3c12.9-0.4,19.8-11.3,18.5-23.6c-0.6-22.4-1.1-44.8-1.7-67.2c-0.2-7.3-1.7-12.3-4.5-14.8
				s-7.3-5.7-13.6-9.5c-15.9-8.9-31.9-17.7-47.9-26.5c-10.6-5.5-18.3-10.1-23.1-14c-4.8-3.8-8.4-8.9-10.8-15.3
				c-2.4-6.3-3.8-14.6-4.2-24.9c-1.2-27-2.4-53.9-3.6-80.9c-1.9-39.3,17.1-68.9,58.7-70.1c10.7-0.3,21.5-0.7,32.2-1
				c41.4-1.4,62.4,26.9,62.8,66.4c0.2,12.8,0.4,25.7,0.6,38.5C748.1,415.1,731.2,415.4,714.4,415.8z"/>
			<path class="st1" d="M911.5,703.4c0.6-59.8,1.2-119.7,1.8-179.5c-20.3-0.2-40.6-0.3-60.9-0.3c0.1,59.8,0.1,119.7,0.2,179.5
				c-16,0-32,0.1-47.9,0.3c-1.3-131.8-2.6-263.6-4-395.4c17.2-0.2,34.3-0.2,51.5-0.3c0.1,56,0.1,112,0.2,168c20.5,0,41,0.1,61.4,0.3
				c0.6-56,1.1-112,1.7-168c17.2,0.2,34.3,0.4,51.5,0.8c-2.5,131.8-5.1,263.6-7.6,395.3C943.5,703.8,927.5,703.6,911.5,703.4z"/>
			<path class="st1" d="M1113.2,709.3c-37.9-1.8-75.8-3.2-113.8-4.3c3.5-131.8,7-263.5,10.6-395.3c17.2,0.5,34.3,1,51.5,1.6
				c-4.1,115.8-8.3,231.5-12.4,347.3c22.2,0.8,44.3,1.7,66.5,2.8C1114.7,677.4,1114,693.3,1113.2,709.3z"/>
			<path class="st1" d="M1135.6,710.4c6.9-131.6,13.8-263.2,20.7-394.9c42.5,2.3,85.1,5,127.5,8.1c-1.2,15.9-2.4,31.9-3.6,47.8
				c-25.1-1.9-50.3-3.6-75.4-5.2c-2.5,39.9-4.9,79.9-7.4,119.8c21.8,1.4,43.7,2.8,65.5,4.4c-1.2,15.9-2.3,31.9-3.5,47.8
				c-21.6-1.6-43.3-3-65-4.4c-2.7,43.8-5.4,87.6-8.1,131.4c23.8,1.5,47.6,3.1,71.4,4.9c-1.2,15.9-2.4,31.9-3.6,47.8
				C1214.8,715.1,1175.2,712.5,1135.6,710.4z"/>
			<path class="st1" d="M1403.6,440.7c1.1-11.5,2.3-23,3.4-34.5c2.5-13.9-6.4-24.4-20-25.7c-3.2-0.3-4.8-0.4-8-0.7
				c-14.2-2.6-22.8,8.8-23.8,21.6c-1.9,21.8-3.9,43.5-5.8,65.3c-0.6,7.3,0.3,12.4,2.9,15.2c2.5,2.8,6.8,6.5,12.6,11.1
				c14.9,10.4,29.8,20.9,44.6,31.4c9.7,7.3,16.5,12.9,20.4,16.8c3.9,3.9,7.2,8.6,8.7,13.7c2.7,8.7,1.7,19.1,0.6,28.6
				c-3,27.9-6,55.9-9,83.8c-3.8,37.1-25.1,64.5-64.8,60.4c-9.8-0.9-19.6-1.9-29.4-2.7c-42.2-3.5-54.7-39.8-51.5-77.3
				c0.6-7.9,0.9-11.9,1.6-19.8c16.2,1.3,32.4,2.7,48.7,4.1c-0.8,8.6-1.1,12.8-1.9,21.4c-1.2,12.7,5.4,24.9,19.6,25
				c3.4,0.3,5.1,0.5,8.5,0.8c12.8,1.2,21.1-8.8,21.3-21.2c2.2-22.3,4.4-44.6,6.6-66.9c0.7-7.3-0.2-12.4-2.6-15.2s-6.6-6.5-12.4-11.1
				c-14.7-10.8-29.5-21.5-44.3-32.2c-9.8-6.7-16.9-12.3-21.2-16.7c-4.3-4.4-7.3-9.9-8.8-16.5c-1.6-6.6-1.9-15-1.1-25.2
				c2.1-26.9,4.3-53.8,6.4-80.7c2.9-39.3,25.5-66.3,66.9-62.3c10.7,1,21.4,2,32.1,3c41.3,3.7,58.7,34.3,54.3,73.6
				c-1.4,12.8-2.7,25.6-4.1,38.3C1437.2,444.1,1420.4,442.4,1403.6,440.7z"/>
			<path class="st1" d="M1587,461.8c1.5-11.5,3-22.9,4.5-34.4c3-13.8-5.6-24.6-19.1-26.4c-3.2-0.4-4.8-0.6-7.9-1
				c-14.1-3-23.1,8.1-24.6,20.8c-2.6,21.7-5.3,43.4-7.9,65.1c-0.9,7.3-0.1,12.4,2.4,15.3c2.5,2.9,6.6,6.7,12.3,11.5
				c14.6,10.9,29.1,21.8,43.6,32.9c9.5,7.6,16.1,13.4,19.9,17.4c3.8,4,6.9,8.9,8.3,13.9c2.4,8.8,1.1,19.2-0.4,28.6
				c-3.9,27.8-7.8,55.6-11.7,83.4c-5,37-27.3,63.6-66.8,58.2c-9.8-1.3-19.5-2.5-29.3-3.7c-42.1-4.9-53.4-41.6-49-79
				c0.9-7.9,1.3-11.8,2.2-19.7c16.2,1.8,32.4,3.7,48.5,5.7c-1,8.5-1.6,12.8-2.6,21.3c-1.6,12.6,4.6,25.1,18.7,25.6
				c3.4,0.4,5.1,0.6,8.5,1.1c12.8,1.6,21.4-8.1,22-20.5c2.9-22.2,5.8-44.4,8.8-66.6c1-7.3,0.2-12.4-2.1-15.3
				c-2.4-2.9-6.4-6.8-12-11.6c-14.4-11.3-28.8-22.5-43.2-33.7c-9.6-7.1-16.5-12.9-20.7-17.4c-4.2-4.5-7-10.1-8.3-16.7
				c-1.3-6.6-1.4-15-0.3-25.3c3-26.8,6.1-53.6,9.1-80.4c4.2-39.2,27.7-65.4,69-60c10.7,1.3,21.3,2.7,32,4.1
				c41.2,5.1,57.6,36.2,51.9,75.4c-1.8,12.7-3.6,25.4-5.4,38.2C1620.5,466.2,1603.7,464,1587,461.8z"/>
		</g>
	</g>
	<g>
		<path class="st2" d="M1724.5,392.6c0,14.9-11.7,26.6-26.9,26.6c-15,0-27-11.7-27-26.6c0-14.6,12-26.2,27-26.2
			C1712.8,366.4,1724.5,378.1,1724.5,392.6z M1677.3,392.6c0,11.7,8.6,21,20.5,21c11.5,0,20-9.3,20-20.8c0-11.7-8.5-21.1-20.2-21.1
			S1677.3,381.1,1677.3,392.6z M1693.4,406.4h-6.1v-26.2c2.4-0.5,5.8-0.8,10.1-0.8c5,0,7.2,0.8,9.1,1.9c1.4,1.1,2.6,3.2,2.6,5.8
			c0,2.9-2.2,5.1-5.4,6.1v0.3c2.6,1,4,2.9,4.8,6.4c0.8,4,1.3,5.6,1.9,6.6h-6.6c-0.8-1-1.3-3.4-2.1-6.4c-0.5-2.9-2.1-4.2-5.4-4.2
			h-2.9V406.4z M1693.6,391.5h2.9c3.4,0,6.1-1.1,6.1-3.8c0-2.4-1.8-4-5.6-4c-1.6,0-2.7,0.2-3.4,0.3V391.5z"/>
	</g>
</g>
<g id="Layer_2">
	<g>
	</g>
	<g>
	</g>
</g>
</svg>
